<svg xmlns="http://www.w3.org/2000/svg" width="296" height="142.91" viewBox="0 0 300 146.91">
 <g transform="matrix(1.3333 0 0 -1.3333 -256.68 597.63)">
  <g transform="matrix(.36572 0 0 .36572 194.03 248.79)">
   <path d="m606.28 360.86c-2.4582 14.963-12.316 36.939-45.385 56.712-2.2338 1.3362-4.5798 2.6367-6.9972 3.9168 6.1863 2.0808 12.582 4.2279 12.582 4.2279l-36.649 14.29c-3.1365 1.224-6.426 2.3256-9.7563 3.3966 2.4225 2.4582 4.9776 5.0541 4.9776 5.0541l-28.101 3.9372c-12.143 1.7034-21.721 2.0961-29.06 1.989-0.0714 1.1832-0.1632 2.2746-0.2856 3.2538 0 0.0102-4.692 35.195-4.692 35.195s-10.873-14.846-11.954-16.32c-2.3103 3.8505-4.9317 7.4715-7.9407 10.873 0 5e-3 -30.309 34.277-30.309 34.277s1.2087-10.083 2.1777-18.13c-9.8277 6.8544-20.635 12.98-32.589 18.105-48.766 20.915-110.44 25.26-169.2 11.939-49.154-11.149-120.13-40.214-179.07-115.35l-34.022-43.37 51.209 20.4c0.408 0.1632 39.938 15.575 71.818 20.068 11.888 1.6779 20.992 1.8105 13.602-14.474-5.8242-12.852-19.054-31.61-19.191-31.798l-25.643-37.296 42.774 14.851c20.573 7.1553 39.04 10.679 48.379 11.011 3.3354-0.0612 3.9474-2.2644 2.8968-4.6614-0.3009-0.8313-0.4743-1.2648-2.7846-4.8144l-26.821-38.281 43.993 15.759c31.926 11.455 73.899 18.998 88.913 13.26 1.224-0.4641 5.1918-2.5704 1.2597-8.3385l-17.279-27.489s25.51 3.8709 29.136 4.4319c2.0043-25.102 14.596-38.791 16.147-40.372l18.533-19.008 6.5076 25.74c4.6716 18.523 13.474 28.616 21.328 34.114 0-0.0102 1.5096-10.577 1.5096-10.577l17.182 6.1965c14.443 5.2224 25.877 11.495 34.109 18.651 10.888 0.8619 37.49 2.448 63.041-0.0816 44.038-4.3554 73.578 1.4994 81.585 3.4017 10.71 2.5347 19.737-2.04 19.834-2.091l13.092-7.1196 7.0635 13.26c0.8364 1.5912 4.8297 9.8685 4.8297 22.139 0 3.0396-0.2448 6.1098-0.7446 9.1239" fill="#fff"/>
   <path d="m600.14 358.31c-2.1777 13.255-11.149 32.849-41.565 51.046-8.1345 4.845-16.968 8.9913-25.908 12.515l10.771 3.621-14.795 5.7732c-7.3287 2.8611-15.03 5.2173-22.97 7.1298 1.5249 1.5453 3.1773 3.2334 3.1773 3.2334l-11.337 1.5963c-17.462 2.4429-29.519 2.1624-36.613 1.4994 0.0663 1.53 0.1173 3.1467 0.1173 4.7787 0 2.2848-0.0867 4.5339-0.3264 6.3546l-1.9023 14.214s-6.8952-9.4197-7.8897-10.781c-2.2797 6.3342-6.018 14.183-12.842 21.915l-12.25 13.857 1.3872-11.567c-11.011 10.231-26.25 20.986-47.139 29.947-47.389 20.324-107.48 24.521-164.82 11.521-48.062-10.899-117.47-39.341-175.17-112.89l-14.54-18.549 21.894 8.7312c0.408 0.1581 41.132 16.289 74.236 20.716 12.98 1.7238 21.94 0.1887 25.22-4.3401 3.06-4.2432 2.0757-12.638-2.6775-22.476-6.5076-13.5-19.808-32.88-19.941-33.084l-10.965-15.938 18.289 6.3444c24.098 8.3793 54.478 14.576 61.521 9.9705 1.6269-1.0659 2.5041-2.3205 2.8458-4.0749 1.1271-5.8548-3.9117-14.729-5.7681-17.391l-11.48-16.356 18.819 6.732c30.064 10.781 83.966 23.144 100.63 10.373 7.7061-5.9109 0.5049-17.59 0.1836-18.08l-7.395-11.776 13.729 2.0961s3.3813 0.5253 6.7167 1.0404c-0.0408-1.0761-0.1122-2.1675-0.1122-3.1926 0-26.576 13.444-40.708 14.091-41.381l7.9305-8.1294 2.7846 11.021c7.803 30.937 26.27 41.647 36.562 45.278 0.2856-2.0502 1.7187-12.072 1.7187-12.072l7.344 2.652c18.013 6.5025 28.101 13.637 33.64 18.992 8.2875 0.7242 38.648 3.0192 67.799 0.1428 42.932-4.2534 71.466 1.3923 79.193 3.2283 14.234 3.366 25.801-2.7897 25.923-2.8509l5.6508-3.0855 3.0345 5.6865c0.1938 0.357 3.8505 7.4715 3.8505 18.227 0 2.4174-0.1887 5.0184-0.6426 7.7826" fill="#9a7611"/>
   <path d="m554.8 402.94c-12.699 8.9811-29.804 15.514-46.4 20.186 6.9105 2.2338 13.831 2.0859 13.831 2.0859-10.634 4.0647-21.736 6.6045-32.064 8.2059l3.8658 3.468c-18.916 3.2232-32.12 2.9784-39.953 2.1624 0.9843 3.876 1.785 9.7971 0.7752 17.702 0 0-2.295-6.8136-7.8591-11.047-0.7344 8.8434-3.5598 21.634-13.158 30.314l1.7799-15.611c-8.4558 12.735-24.546 29.019-54.968 43.248-82.696 38.653-228.41 24.001-308.4-79.31 0 0 31.105 15.545 74.2 16.575 22.578 0.5304 28.065-12.112 19.839-33.42-8.2722-21.415-22.772-40.203-22.772-40.203s97.522 34.558 66.734-13.449c0 0 73.618 22.047 95.702-3.8148 10.266-12-1.6881-28.784-1.6881-28.784l20.884 4.5186c-6.7728-26.525 5.0847-43.467 5.0847-43.467 8.619 34.675 38.673 43.911 49.312 45.66l2.3001-9.3942c17.83 6.4464 26.214 13.306 31.008 18.957 37.755 5.9364 63.393 0.8619 92.499-0.7242 42.396-2.3154 64.311 5.0694 71.313 5.0235 5.1408-0.0459 11.235-4.5288 11.235-4.5288s17.62 29.743-33.099 65.647"/>
   <path d="m357.69 500.34c-93.85 28.004-191.78 0.9129-246.13-51.138 0 0 54.713 17.218 71.125 0.3009 19.089-19.671-9.8328-65.923-9.8328-65.923l18.916 2.9631c-1.3617-0.1632-2.142-0.2601-2.142-0.2601 14.775 51.709 28.111 69.834 37.041 78.698 5.3091 6.477 14.698 10.868 22.226 13.428-50.577-2.4123-99.746-12.821-99.746-12.821 31.798 24.679 105.53 41.922 148.03 37.587 42.498-4.3401 39.607-21.578 35.236-31.411-3.5394-7.9458-20.9-18.717-37.225-22.195 16.901-2.2032 26.474-15.249 20.42-28.274-0.5202-1.1169-1.122-2.1981-1.7646-3.2385-18.039-4.284-34.048-11.077-47.185-18.498-0.459-0.2703-0.9129-0.5355-1.3719-0.7956-0.612-0.357-1.2291-0.714-1.836-1.0761-0.4641-0.2754-0.9282-0.5457-1.3974-0.8313-0.5712-0.3468-1.1322-0.6987-1.6881-1.0455-0.4641-0.2958-0.9384-0.5814-1.3974-0.8823-0.5355-0.3315-1.0608-0.6783-1.5861-1.0251-0.4488-0.2856-0.9129-0.5865-1.3617-0.8874-0.4947-0.3519-0.9945-0.6885-1.4892-1.0251-10.797-7.4205-18.635-14.851-22.7-20.614 0 0 110.53 22.389 91.382-33.278l28.55 7.8234c-2.0145-3.519-5.202-7.5378-9.537-12.373-13.495-14.989-12.566-29.238-12.566-29.238s3.9627 15.591 29.498 26.28c23.287 9.7308 28.657 26.275 28.657 26.275s7.7571-11.465 1.4076-27.52c0 0 10.725 2.6775 20.324 15.846 3.9117 6.9972-0.0918 15.32-1.7493 19.395-14.606 7.7673-38.51 22.629-18.207 27.479-12.648 1.887-51.178 5.6916-99.455-8.0937 0 0 44.63 29.81 130.46 15.8-23.19 13.841-74.001 13.27-74.001 13.27 17.682 4.4217 36.751 4.4778 54.728 2.4939-7.2267 2.0094-17.049 4.3503-28.601 6.1047-17.651 2.091-34.502 1.1577-50.041-1.7136 17.462 18.125 49.276 15.744 49.276 15.744-21.216 14.295-48.878 9.7206-48.878 9.7206 31.013 16.05 65.494 10.618 65.494 10.618-10.843 14.316-36.445 17.468-36.445 17.468 50.755 2.0553 68.534-24.618 68.534-24.618-12.653 5.5131-21.665 4.6818-21.665 4.6818s12.199-1.9788 20.456-17.411c8.7465-16.351 16.162-15.881 16.162-15.881s13.908 52.683-77.928 80.09" fill="#24135f"/>
   <path transform="matrix(.75 0 0 -.75 0 541.17)" d="m379.29 49.777c-57.656-0.49953-142 21.178-180.42 50.998 0 0 65.56-13.879 133-17.096-10.037 3.4136-22.556 9.2683-29.635 17.904-11.907 11.818-29.689 35.986-49.389 104.93 0 0 1.0399-0.13005 2.8555-0.34765 8.4524-1.0744 33.865-4.1261 48.92-4.8945l25.357-1.4629c2.754 0 5.5816-0.0956 8.4512-0.25196 0.31959-0.2108 0.63938-0.44154 0.95898-0.65234 0.6596-0.4488 1.3267-0.89799 1.9863-1.3672 0.5984-0.4012 1.216-0.80279 1.8144-1.1836 0.7004-0.4624 3.3597-2.1486 3.9785-2.543 0.7412-0.4624 1.4904-0.93213 2.252-1.3945 0.6256-0.3808 1.2425-0.74022 1.8613-1.1074 0.8092-0.4828 1.6332-0.95955 2.4492-1.4356 0.612-0.3468 1.2161-0.70015 1.8281-1.0606 17.517-9.894 38.862-18.952 62.914-24.664 0.8568-1.3872 1.6599-2.8272 2.3535-4.3164 8.0716-17.367-4.6933-34.762-27.229-37.699 21.767-4.6376 44.916-18.999 49.635-29.594 5.8276-13.11 9.682-36.094-46.982-41.881-5.3129-0.54188-10.991-0.83114-16.955-0.88281zm2.4648 31.945c10.948 1.1628 16.15 9.6613 9.3633 21.514-3.0872 5.3516-9.3642 9.8399-17.477 12.254 0.9656-1.394 1.904-3.0198 2.7812-4.9238 7.004-15.035 1.6254-21.636-11.607-21.752 3.5972-5.44 5.5625-7.0586 5.5625-7.0586zm-39.623 52.414h16.768c13.484 0 20.985 7.5889 12.566 25.697-5.1068 10.989-14.381 16.128-22.963 18.25 3.2504-2.7472 6.1266-6.3027 8.2754-10.92 8.4048-18.102 0.91792-25.691-12.58-25.691h-5.6777c1.1492-2.4276 2.3601-4.8811 3.6113-7.3359z" fill="#fff"/>
   <path transform="matrix(.75 0 0 -.75 0 541.17)" d="m364.81 88.814c-3.4884 5.2632-8.5127 14.102-14.803 28.586h10.158c4.8416 0 9.3839-0.69976 13.471-1.9102 0.9656-1.394 1.904-3.0198 2.7812-4.9238 7.004-15.035 1.6254-21.636-11.607-21.752zm-26.295 52.658c-9.35 19.795-15.164 37.924-15.164 37.924h14.484c3.1212 0 6.8269-0.3401 10.662-1.3125 3.2504-2.7472 6.1266-6.3027 8.2754-10.92 8.4048-18.102 0.91792-25.691-12.58-25.691z" fill="#24135f"/>
   <path transform="matrix(.75 0 0 -.75 0 541.17)" d="m373.79 58.188c-8.3959 0.02211-18.56 0.50207-29.592 1.9785-11.642 1.5572-68.231 7.3167-116.42 30.838 42.14-10.261 91.943-14.022 123.47-15.164 13.26-0.4692 27.826-0.05469 27.826-0.05469 9.4316 0 18.175 2.7879 21.527 8.2891 3.4748 5.6916 4.4352 12.519-2.0996 20.855-3.5972 4.5968-7.8197 9.4385-20.08 14.43l14.129-3.0117c21.121-4.5152 40.291-16.382 44.697-25.582 3.2164-6.7184 3.4003-12.104 0.80273-16.367-5.2972-8.6972-18.232-13.846-41.195-15.016 0 0-9.0811-1.2322-23.074-1.1953zm-19.023 29.082c-6.4373 0.08795-27.98 3.2653-44.766 19.279-15.592 13.784-32.436 49.585-45.832 92.221 23.045-2.4208 43.936-3.5156 43.936-3.5156l21.91-0.94532c5.7596 0 11.818-0.31124 17.932-0.99804 16.796-10.363 37.813-20.232 61.811-26.916 1.5164-2.0196 2.8229-4.1545 3.8633-6.4121 2.414-5.1748 2.693-11.607 0.97265-16.693-2.5908-7.718-7.752-12.858-24.018-16.666-21.406-4.998-52.674-2.7949-52.674-2.7949 7.1944-17.469 12.567-27.684 17.945-36.537-0.289-0.0187-0.65092-0.02735-1.0801-0.02148zm-18.926 40.984h23.27c12.009 0 17.531 4.9243 20.061 9.0723 3.9644 6.494 3.2572 15.245-1.6524 26.207-9.4724 21.141-32.422 23.045-39.311 23.045l-26.404 1.0059c11.444-36.312 24.037-59.33 24.037-59.33z" fill="#9a7611"/>
   <path transform="matrix(.75 0 0 -.75 0 541.17)" d="m526.75 124.56c-2.374-0.0947-4.8074 0.21623-7.1738 0.98633-9.4724 3.0668-14.313 12.309-10.805 20.625 3.5088 8.3096 14.041 12.566 23.514 9.4785 9.4792-3.0804 14.313-12.308 10.805-20.617-2.6316-6.2424-9.2177-10.189-16.34-10.473zm6.4688 9.3242c3.9534 0.13419 7.5798 2.4765 9.0078 6.2148 1.9176 4.9776-0.82187 10.546-6.1055 12.443-5.2836 1.8836-11.097-0.61036-13.008-5.6016-1.9108-4.9776 0.84133-10.54 6.1113-12.424 1.3209-0.476 2.6763-0.67755 3.9941-0.63281z" fill="#c8102e"/>
   <path transform="matrix(.75 0 0 -.75 0 541.17)" d="m527.67 128.87c-1.7446-0.0265-3.5298 0.22823-5.2715 0.79688-7.344 2.38-11.152 9.3828-8.5 15.666 1.6184 3.8488 5.3177 6.5225 9.6289 7.4473-2.1216-1.3396-3.8294-3.2163-4.8086-5.5215-2.6384-6.2424 1.1764-13.26 8.5-15.646 2.8288-0.918 5.7602-1.0213 8.4394-0.42969-2.2865-1.445-5.0806-2.2683-7.9883-2.3125zm87.65 30.064 17.504 14.109-32.566-2.8223 25.779 18.639c-27.662-9.044-102.17-33.456-163.91-18.02 0 0 67.748-0.76184 98.668 17.693-114.44-18.68-173.95 21.066-173.95 21.066 64.369-18.38 115.74-13.307 132.61-10.791-27.071 6.4668 4.8002 26.282 24.275 36.639 2.21 5.4332 7.5486 16.53 2.3262 25.873 0 0 5.8673-7.4672 10.145-18.449l15.838 12.717c47.274-5.8344 82.144 4.1279 121.29 3.9375 28.152-0.1564 49.217-2.6933 65.789-6.5625-61.166-26.214-180.92-37.427-199.47-35.91 0 0-10.138 2.8561 1.5312 14.062-16.32-6.426-32.613-18.673-33.742-24.875-1.19-6.5892 10.73-8.4317 38.957-5.1133 105.7 12.485 197.18 30.178 209.54 56.072 0 0 6.4539-32.415-46.246-63.287-45.091-30.063-114.37-34.979-114.37-34.979z" fill="#fff"/>
  </g>
 </g>
</svg>
