<svg xmlns="http://www.w3.org/2000/svg" width="296" height="225.24" viewBox="0 0 298 227.24">
 <g transform="matrix(1.3333 0 0 -1.3333 -259.03 639.64)">
  <g transform="matrix(.36361 0 0 .36361 195.21 250.92)">
   <path transform="matrix(.75 0 0 -.75 0 792)" d="m273.22 235.52c-17.262-0.048-35.121 1.3849-53.514 4.5176-63.526 20.375-120.77 59.427-160.11 114.07-0.32012 0.4488-0.65372 0.88519-0.9707 1.334-0.14751 0.2072-0.28413 0.41793-0.43164 0.625-47.196 66.736-67.829 156.37-41.086 263.43 20.463 74.507 44.408 114.02 70.395 151.05 0 0-1.1885 17.984 29.816 8.5996 7.0239-2.1279 13.361-3.7605 19.377-4.6738 18.04-2.7461 33.173 0.98832 55.174 17.387 1.3151 0.97919 2.6746 1.943 4.043 2.9004 51.64 36.051 136.54 51.728 191.76 22.926 14.151-7.3753 26.36-17.699 35.559-31.352-0.0345 0 0.39844-0.72851 0.39844-0.72851 4.1741-5.9348 6.7543-11.353 8.9199-17.539 4.0204-11.267 5.0562-22.69 4.6797-33.424-3.4995-0.58054-7.118-1.1834-10.85-1.8047-2.4165 46.352-48.386 90.999-130.58 85.861-34.272-1.2743-70.849-17.933-92.664-29.824-10.037-6.7383-38.339-22.602-51.91-25.6 11.797 0.6308 41.316 16.085 53.691 23.234 25.371 13.072 60.771 25.622 90.895 26.881 54.876 5.1533 117.14-22.978 123.79-81.68-55.067-9.1736-128.11-21.341-138.69-23.102-2.1561 1.5441-4.8708 2.2993-7.8711 2.1016-5.5551-0.37987-10.921-3.7872-13.074-8.3223-1.5849-3.3676-1.2392-6.9293 1.0078-10.105-0.0408 0.0721 26.08-38.877 26.08-38.877l1.0566-2.0957c-1.224-5.9443 1.6048-11.161 2.8633-12.416 2.1405-2.1467 14.007-21.619 16.734-27.086 0.31706-0.62773 3.458-5.5219 9.6816-5.9863 2.7555-4.4189 9.4058-15.046 20.701-33.365-0.8976-5.1784 1.5061-10.188 5.1719-13.082 1.1047-0.86933 2.2793-1.4879 3.4688-1.9336 13.947-22.575 29.567-47.3 33.914-53.771 4.9776-6.8451 8.8825-11.388 13.336-16.529 1.6164-1.8267 5.2601-4.7552 6.8418-5.998 2.0745-2.8089 5.1686-4.9768 8.373-5.9121 0.0408-0.25413 0.23181-0.54725 0.65234-0.89258 11.248-9.1768 27.113-14.914 27.113-14.914 21.188-8.8725 58.894-19.072 97.428-26.805-2.7053-7.8211-11.264-32.441-11.264-32.441-0.0689-0.18213-0.29296-0.67987-0.58789-1.3828-0.64347-1.5316-1.6403-4.1335-2.2774-7.1055-0.5712-2.6552-0.83002-5.5763-0.27148-8.2754 0.27306-1.3308 0.72613-2.6118 1.4668-3.7637 0.182-0.2856 0.44167-0.50438 0.65821-0.76172 0.4928-0.58693 1.0559-1.1101 1.6992-1.5684 0.3516-0.25106 0.673-0.5244 1.0527-0.74414-17.582-29.759-44.373-59.892-78.689-84.623-28.271-20.375-61.656-37.063-99.195-46.883-0.4332-0.11293-0.85866-0.24519-1.2949-0.36133-0.2636-0.0659-0.53802-0.11843-0.80468-0.1875-22.483-5.7003-46.437-8.9318-71.666-9.002zm266.97 220.8c-30.264 6.3333-61.883 13.913-89.254 25.045-9.4437 3.4145-16.945 8.264-24.299 13 2.1655 4.7799 4.7555 10.497 7.6836 16.953 7.2216-6.9643 14.364-11.901 19.689-15.09 1.0232-0.76586 3.2422-2.168 3.2422-2.168 17.895-9.6759 28.915-14.934 57.293-18.559-0.11614 0.012 7.0644-0.97852 7.0644-0.97852 4.8269-0.72186 14.039-2.6345 16.697-7.4394 1.5064-2.7336 2.0836-6.3793 1.8828-10.764zm-132.62 54.678c-2.2125 3.3173-6.2368 9.4499-10.031 15.4 0-0.0251-14.014 22.387-28.561 45.906 10.348 11.038 25.756 26.7 37.293 37.791-2.6205-16.596-3.2468-33.666 0.19922-49.449 2.3287-10.721 6.2377-19.999 10.93-27.98zm-51.785 82.953c-7.0741 11.437-11.726 18.975-14.604 23.639l31.168 20.453c6.6912 4.4127 14.167 9.648 14.484 19.418 0.2856 10.059-8.4368 21.79-11.268 25.584-3.6595 4.8615-15.212 18.584-30.217 9.0371 0 0-21.758-13.515-37.102-22.68l-11.82 17.488c11.229 1.7859 72.396 11.527 122.6 19.527-2.652-19.383-9.0339-37.082-12.9-52.539 6.7508 14.509 13.775 33.035 17.742 53.307 3.4115 0.54307 6.7562 1.0766 10.023 1.5977-1.0483-5.1535-2.1517-9.8219-3.0273-13.82-1.8235-8.3577-9.255-26.15-15.83-47.85-9.7135-5.6744-19.456-13.31-29.016-23.68-0.13813-0.1444-16.242-15.488-30.236-29.482z" fill="#f30"/>
   <path transform="matrix(.75 0 0 -.75 0 792)" d="m621.66 371.16-12.25 5.668 22.113 49.273 2.4961 0.28515c1.7827 0.3012 3.5933 0.35445 10.689 2.4258 9.3024 2.6991 10.931 23.646-6.7852 21.873-2.856-0.3704-5.6269-0.68489-7.918-0.92969-9e-3 -0.0188-0.0226-0.0377-0.0352-0.0566-3.0348-0.55853-6.8451-1.1206-11.258-1.4375l-0.97656-0.11523c4.5163 17.607 3.2047 41.315-20.572 46.604 12.271-5.3668 1.5265-9.0652 0.90821-9.3476-25.641-5.8752-68.234 2.0188-72.91-1.2012 27.358-2.6457 29.429-16.285 27.197-30.393-1.3904 0.28253-2.8049 0.57963-4.2109 0.86523 2.6332 14.839-3.5523 20.36-11.766 23.42-12.535 4.2527-21.549 4.3685-21.957 4.3184l-8.1582-0.28515c3.5433-1.1895 10.524-1.4888 19.096-3.2559 13.153-2.7304 20.801-8.4946 19.875-23.594-1.6823 0.3484-3.3611 0.69025-5.0527 1.0449 0.2008 4.3844-0.37642 8.0301-1.8828 10.764-2.6583 4.8049-11.87 6.7176-16.697 7.4394 0 0-7.1806 0.99105-7.0644 0.97852-28.378 3.6249-39.398 8.8827-57.293 18.559 0 0-2.219 1.4021-3.2422 2.168-5.3259 3.1887-12.468 8.1256-19.689 15.09 0.816 1.8015 1.6513 3.6492 2.5176 5.5605 3.2295-3.2169 6.7756-6.3522 10.705-9.3809 0 0 7.9608-7.0013 18.004-11.445-14.387 9.2208-23.308 18.285-27.689 23.074 11.408 25.183 26.696 58.93 41.723 92.104-3.4555-25.723 45.846-45.253 63.898-2.5449 3.4304 8.1349 6.4965 17.184 8.957 26.74 3.5841-0.35467 7.2192-0.71947 10.91-1.1055-1.1801-4.7956-2.5201-9.5908-4.0391-14.377-2.6112-10.906-4.5828-26.153-4.4824-42.301-0.0157-0.80973-0.0254-1.6057-0.0254-2.3965 7.4445 8.6684 34.157 37.636 66.084 46.91l-7.9648-19.527s-32.164-13.747-56.061-50.477c0.33266-1.8267 0.62914-3.204 0.83007-4.0703 2.7021-13.47 7.4841-26.159 15.355-36.014 0.5272-0.6528 1.0107-1.2041 1.5098-1.791 0.4488-0.67787 1.2863-1.796 2.5606-3.0703l50.662 118.78s8.4544-0.57374 16.156-1.9609c0 0-40.1-94.968-52.293-123.89 0.83173-0.11934 1.7036-0.20364 2.6074-0.25391 0.40493-0.0503 0.75289-0.11225 1.1797-0.15625v-0.0156c0.74693-0.0408 1.4104-0.0881 1.7148-0.14453 12.099-2.1719 18.441-7.5832 23.055-15.963 3.9639-7.2184 4.4996-16.741 3.8594-24.465 0.6088-0.8412 1.2588-1.5927 2.0371-2.2988 1.0515-0.95413 2.3514-1.8239 4.1152-2.7246 13.411 7.0176 37.755-2.5934 23.07-25.896zm-63.363 4.9609c0.0189-0.0753-0.42188 0.21093-0.42188 0.21093l-5.293 2.7559c-3.8352 4.5884 1.9219 19.666 1.9219 19.666s4.4427 13.891 10.061 27.791c14.744-3.8477 25.294 23.35-0.68945 25.324 2.5391 10.846 26.966 6.3013 17.51-18.238-1.8924-4.9368-18.24-38.848-21.363-47.303-1.996-5.3981-2.0686-6.3428-1.9492-8.207 0 0-0.0703-1.41 0.22461-2zm12.094 3.3086c-0.68733 5.3668 3.8953 11.925 6.9082 13.871 2.1969-3.5151 0.15339-13.777-6.9082-13.871zm-21.984 1.6348-4.8379 2.3008s-2.2596 4.6417 0.89453 14.211c4.1428 12.573 10.73 30.738 10.73 30.738l5.3066-0.98829-10.123-28.281s-4.1614-10.913-1.9707-17.98zm30.461 18.357c0.34533 5.6493 2.1633 9.5396 5.7129 13.055 3.264-4.9587-0.16089-11.893-5.7129-13.055zm29.715 28.381s3.8106 8.8726 3.8106 15.074c7.4068 0.70933 21.894 2.087 27.424 3.3047 6.1169 0 7.1874-4.0513 7.3633-5.834 0.29813-3.3173-1.5379-7.3227-4.6387-7.7715l-0.19532-0.0273-0.20117-0.0703c-4.3561-1.4593-25.355-3.8818-33.562-4.6758zm-42.225 3.627c-0.30503 0.0118-0.6135 0.0389-0.92578 0.082-46.942 7.5731-101.25 21.587-127.42 32.559-9.0356 3.7756-15.708 7.0402-20.846 10.502 1.654 0.93213 1.9239 1.281 3.9043 4.793 1.2492 2.1907 4.7109 9.6973 4.7109 9.6973 6.2769-4.7673 12.25-8.1659 23.451-12.205 35.59-14.468 78.153-22.984 115.74-30.504l2.8496-0.56445c6.1356-0.9792 7.766-4.7194 7.3047-7.9238-0.50912-3.3778-4.194-6.6133-8.7695-6.4356zm20.449 18.072c-0.2856 3.854-5.6172 7.4844-5.6172 7.4844 19.691 1.3809 24.34-7.3848 24.34-7.3848-6.3084-0.1004-18.723-0.0996-18.723-0.0996zm-174.14 29.744c-2.6551-0.0472-6.6066 1.9424-8.6152 5.291-1.5127 2.5736-1.537 5.212-0.043 7.8828 0.0439 0.0911 35.981 78.744 66.666 145.87 7.7865 1.6288 17.742 1.1777 17.742 1.1777l-72.025-159.46c-0.0909-0.15387-1.829-0.73901-3.7246-0.75781zm-13.838 7.9961c1.472-1.7544-9.6574 11.367-14.324 19.031-4.4409 6.6504-17.508 27.329-31.848 50.598 2.9565 0 6.1035 3.7773 6.1035 3.7773l7.373 8.0957 27.395-44.955c4.5444-7.1369 12.695-17.264 12.127-16.715 0 0-3.3866-8.3966-5.0625-11.742-2.0745-4.1868-1.7637-8.0898-1.7637-8.0898zm167.1 23.158c-17.321 12.607-22.739 56.76-17.633 80.521-14.007-15.479-7.1138-77.527 17.633-80.521zm-148.53 22.268c-4.692 7.9812-8.601 17.259-10.93 27.98-3.446 15.783-2.8198 32.853-0.19922 49.449 1.7544 1.6884 3.4493 3.3036 4.9902 4.7441 0.42693 0.33267 0.84384 0.64626 1.2676 0.97266-4.9871-25.638-5.1721-52.635 7.7363-76.832zm5.3438 11.779c-9.7764 24.712-8.3517 50.789-3.4023 76.402 13.502 9.4876 26.301 15.23 45.982 17.449zm-71.787 16.957c-1.8066 0.0659-3.5793 0.75373-4.7656 1.7031-3.3676 2.6457-5.0728 7.668-1.8652 12.219 12.846 14.079 44.758 44.487 45.072 44.801 28.846 31.309 57.848 37.801 83.982 39.27 18.357 1.2711 41.968 0.17306 37.812 0.43359 48.078-2.9031 129.89-14.334 174.68-22.479 3.3488-0.7564 6.0957-1.293 6.0957-1.293l1.5527-0.0254c2.1247 0.9856 4.1487 7.4975 4.2617 7.9746l-0.0684-0.24415c4.6607 11.735 13.975 42.187 14.078 42.494 0 0 2.5645 9.3272 1.5508 10.354-1.5723 1.5849-14 4.5293-14 4.5293-22.973 6.12-118 20.212-169.4 23.068-0.35786 0.0784-13.878 2.1706-42.953-2.1856-0.0408 0-190.77-31.33-190.77-31.33l-10.596 14.512c-0.8192 0.0188 197.31 32.26 197.31 32.26 17.999 2.856 32.286 3.477 42.363 3.3672l5.7344-0.1621c7.1808-0.30134 11.252-0.92969 11.346-0.92969 53.118-5.3761 120.41-13.968 163.91-24.322 0 0 4.9491-1.0495 8.7246-0.9082 1.5159 0.0408 3.6406 0.93359 3.6406 0.93359 0.75013 0.6904 1.6885 2.5197 2.3789 5.4668 7.7677 28.023 9.3972 70.141 9.4883 72.131 0 0 0.1563 8.7256-1.3125 12.115-1.814 1.9489-8.2598 3.0566-8.2598 3.0566-70.528 18.056-152.84 5.313-184.76-63.09-6.8983 0.5712-17.408 0.37109-17.408 0.37109 0.58373 2.3696 3.2168 7.3223 3.2168 7.3223 20.57 45.558 57.629 63.723 88.957 71.996 34.517 9.1267 75.511 8.5461 113.75-1.293 6.1953-2.0745 5.9746-2.543 5.9746-2.543 5.7528 2.9501 11.441 0.37695 11.441 0.37695 2.6175-1.3339 3.9999-4.1014 4.3106-7.5098 5.6839-64.291-18.873-149.39-43.727-195.21-3.5747-2.9219-7.8539-2.8926-11.049-1.4238-1.6791 0.75946-3.6834 2.3654-3.7461 2.877l-0.20508 1.4688 0.0703 0.67188s-2.6521 1.0421-7.0742 1.6289c-34.853 6.8701-153.39 21.371-185.92 20.549-0.78147-0.022-16.555 0.19933-29.922-1.3887-24.684-2.7871-37.402-9.9889-55.084-23.779-15.937-14.908-48.203-48.261-53.846-55.803-1.3197-1.5394-3.1602-2.0952-4.9668-2.0293zm-11.006 16.467c-15.636 25.384-19.755 32.239-20.047 32.703l-0.0879 0.16016-0.11133 0.13476c-2.2157 2.6583 1.4694 6.4651 2.2383 7.209 3.3583 3.2327 8.7312 5.3075 11.289 3.2832l19.01-30.148s-7.5613-6.8327-12.291-13.342zm418.48 29.688c-0.74751 0.0103-1.1856 0.10351-1.1856 0.10351 6.8073 2.0713 12.627 13.517 0.20508 20.318 0 0 7.9924 19.795 13.494 44.623 22.848-0.17587 24.026 27.222 10.641 31.557 0 0 8.659 43.744 11.025 67.797 0.28559 4.4409 0.0977 8.0781 0.0977 8.0781 9.4529 1.9584 14.963 8.5688 14.963 12.115 4.6199-27.593-11.505-107.41-32.285-165.67-4.6436-17.452-13.716-18.968-16.955-18.924zm-6.2441 2.707s-5.5577 0.6946-8.5078 1.5859c-9.4813 2.7869-23.177 5.5335-33.842 7.3633 3.6847 7.162 4.5746 10.065 5.8457 12.877-0.49587 0.2888 5.057-0.776 11.07-1.9277 9.6979-1.8235 19.395-4.1076 24.244-5.6172l1.9453-0.42383c5.37-1.0043 6.0243-5.9101 5.8203-7.2031-0.50533-3.4303-2.336-5.9356-6.5762-6.6543zm-20.82 0.0703s-23.513 2.3438-31.412 1.7852c0.7312 0.0471 3.5077 0.36402 6.2852 2.627 0 0 20.686-2.6358 25.127-4.4121zm-88.43 1.5 5.041 11.527s24.592-2.6738 35.234-5.332c0 0 0.30288-4.1498 4.7188-4.7305 0 0-19.296 2.0753-44.994-1.4648zm-329.21 0.45899c-3.4524 2.9909-4.1172 8.6804 2.4453 12.795 11.462 7.1808 48.834 29.191 48.834 29.191s10.093 6.4331 10.535 14.559c3.0537-8.6872-2.0745-15.108-7.2969-18.855l-34.775-23.275c-6.5061 1.7669-20.244-5.4445-19.742-14.414zm26.1 9.6152-2.8223 2.7246s26.567 17.688 33.381 22.264c7.7928 5.2695 10.825 11.94 9.5976 18.631 0 0 6.6001-11.133-5.6055-20.389-6.8072-5.1784-22.568-15.513-34.551-23.23zm-31.779 0.36328c-1.4783 2.5704-4.8241 8.1202-11.713 17.809-3.0192 4.2589-4.0939 8.1093-3.1836 11.486 1.3589 5.0184 6.7448 7.5178 6.7949 7.543l0.10742 0.0625 0.084 0.0644 32.604 19.992 3.7969 2.2949-0.0156 0.0254 10.494 6.4746c7.73 5.1313 17 0.99697 21.836-5.4902 4.2557-5.7591 5.9124-13.994-2.8125-22.295 0 0-1.5106-2.0024-9.043-6.1953-7.0049-3.8885-31.334-18.61-42.893-25.863 0 0-4.5628-2.6505-6.0566-5.9082zm-74.416 1.5644c-8.8255-0.0533-16.998 3.2826-23.018 9.4121-13.367 13.605-12.411 37.063 2.1016 52.271 7.3911 7.7645 17.382 12.248 27.396 12.32 3.6375 0.0439 7.1737-0.51098 10.479-1.6094l21.963-32.486c-0.18213-9.7229-4.044-19.773-11.529-27.594-7.3879-7.752-17.378-12.252-27.393-12.314zm99.557 23.029c10.562 0.17886 14.299 8.5205 15.068 11.549 7.57-0.93533 13.133 4.0123 13.371 4.2383 9.1047 8.9445 2.8713 17.089 2.8086 17.18-0.0723 0.0911-7.6139 10.463-21.316 2.3223-1.8641-1.1268-3.5258-2.8407-4.5176-4.6641l-8e-3 0.0195c-1.1236-2.0933-1.6582-3.6133-1.6582-3.6133-11.631 1.8047-16.034-6.9141-16.088-7.002-3.4397-5.3793-1.1074-11.627-1.1074-11.627 1.0389-2.8309 3.1604-7.7403 12.246-8.3711l0.0762-0.0215h0.0801c0.35504-0.0117 0.70421-0.0155 1.0449-0.01zm81.85 0.24805c6.5751 21.699 14.007 39.492 15.83 47.85 0.8756 3.9984 1.9791 8.6668 3.0273 13.82 4.466 0.7124 8.7884 1.4008 12.896 2.0566-0.0313-0.8316-0.0721-1.6562-0.11914-2.4785 14.198-10.244 25.155-27.055 31.049-42.738l-0.98437-2.1738c-0.69987-0.0408-1.3997-0.0811-2.084-0.125-14.848-0.83479-31.1-3.035-47.684-10.188 4.1961 15.931 8.4894 31.349 10.865 45.764-2.9345-12.381-9.7007-29.15-15.902-48.104-2.2941-1.1329-4.5909-2.3404-6.8945-3.6836zm237.91 0.37304s-13.206 2.1663-15.547 2.4551c0 0 19.664 48.118 22.771 54.012 0 0 12.977-1.8734 15.629-3.0566 0 0-12.826-25.487-22.854-53.41zm-321.49 1.8984c-2.6679 0.0794-4.3137 0.94748-6.3184 2.6309 0 0-2.3605 9.7236 4.7324 13.719 0.4896 0.226 0.75688 0.62166 1.2246 0.77539-0.408-1.4499-0.50311-3.0993-0.53125-5.2617-0.904-0.6088-1.6196-0.85278-2.0684-1.6562l0.0117-2.4707c0.69667 0.7564 1.2568 0.77244 1.9629 1.3594 0.204-3.4335 0.74545-6.8255 2.1953-9.082-0.42684-0.0208-0.82786-0.025-1.209-0.0137zm5.5137 0.43945c-1.5504 2.8968-2.3673 6.4222-2.4961 10.279 1.3747 0.60894 2.633 1.0733 4.0547 1.1895 0 0-0.17752 1.4214-0.13672 2.0742-1.4028 0.066-2.7152-0.1545-3.8828-0.5625 0.0816 1.5912 0.11676 3.0363 0.49023 4.4863 7.1463 1.0984 10.654-3.4314 11.074-6.7676l-0.58399-0.0566c0.2512-4.5696-3.4447-9.0326-8.5195-10.643zm69.158 4.0547c3.8665 15.457 10.248 33.156 12.9 52.539 1.6257 0.25733 3.2381 0.51344 4.8418 0.76757-3.9671-20.271-10.991-38.798-17.742-53.307zm-83.602 1.2715c-4.0392 10.894 6.7378 18.571 16.26 15.668 2.2503 11.239 14.387 13.925 20.686 9.9297-5.0277 0.8004-15.437 0.49317-17.082-11.471-7.5636 2.7901-21.04 0.64265-19.863-14.127zm-32.564 1.6328-24.812 37.885c-1.2711 1.8077-1.4685 3.6188-0.60547 5.3984 1.3936 2.9501 5.3027 5.3884 9.1035 5.627 1.9803 0.13186 4.7044-0.27615 6.4336-2.9219 0.0252-0.0251 18.675-27.78 23.91-35.52 0 0-12.466-7.4716-14.029-10.469zm277.82 1.4746c-3.6093 0.40173-7.1938 0.78739-10.74 1.1641 2.4888 19.578 1.8802 39.886-3.6875 58.096 3.7881-0.36093 7.5414-0.73734 11.264-1.1328 2.3821-8.8097 3.8056-18.115 4.3203-27.766 0.012-0.89134 0.0289-1.7732 0.0352-2.627l84.277 14.33s-5.5425-12.532-7.0176-16.775l-77.426-13.291c-0.0283-0.82534-0.0638-1.6414-0.10156-2.4512-0.22907-3.1636-0.52529-6.3457-0.92383-9.5469zm-218.87 2.4922c-0.53667 3.6627-2.8218 6.4058-4.209 7.4102 1.494 7.9685 6.516 11.495 15.436 10.334l1.8652-0.31055c5.1377-7.5041-2.8573-17.738-13.092-17.434zm131.82 3.1738c14.999 32.844 20.862 46.514 26.172 56.561 11.226 0.89133 17.834-0.40234 17.834-0.40234l-26.088-56.068s-7.7053 1.0808-17.918-0.0898zm292.77 13.348c-4.5056-0.15222-8.5684 1.248-8.5684 1.248-7.6956 1.7889-30.719 6.2246-30.719 6.2246l1.4688 4.1289c6.2111-0.58693 33.09-7.3867 33.09-7.3867 5.1125-0.0941 5.3125 3.3418 5.3125 3.3418-10.329 3.8604-36.814 9.375-36.814 9.375 1.1769 5.0121 3.7266 14.77 3.7266 14.77 31.328-5.5991 38.109-9.0586 38.109-9.0586 9.1519-3.8415 5.625-14.57 5.625-14.57-1.7748-6.2142-6.7248-7.92-11.23-8.0723zm-99.75 8.8301 5.9102 13.609 22.359-4.4121s8.1696-0.31434 5.7969-9.0801c0 0-14.275 0.19668-34.066-0.11719zm-486.13 33.824c30.829 39.51 85.081 39.695 112.45 10.73-11.641 5.6995-60.287 37.662-112.45-10.73zm160.5 3.0352c-9.0105-0.0157-16.33 7.2746-16.355 16.285-0.0188 4.8332 2.1033 9.1324 5.4238 12.133 1.6948 3.6971 5.3361 6.2715 9.5918 6.2715 3.0349 0.0133 5.7638-1.2879 7.7129-3.3594 5.7967-2.4856 9.8717-8.2197 9.8906-14.93 0.0344-9.042-7.2562-16.353-16.264-16.4zm339.41 1.3867s-13.385 2.9658-16.643 3.5684c0 0 18.906 34.564 54.641 52.029 0 0-0.48658-13.609-1.0703-18.947 0 0-22.758-15.372-36.928-36.65zm-339.03 1.5371c10.621-0.022 18.022 13.609 9.1621 22.773 3.8477-8.2699 0.6998-18.797-9.4531-19.236-10.548-0.41427-14.044 10.163-12.205 15.699-3.5652-3.3581-2.3424-19.177 12.496-19.236zm71.094 5.8223c-6.6504 58.702-68.919 86.833-123.79 81.68-30.123-1.2585-65.523-13.809-90.895-26.881-12.375-7.1495-41.894-22.604-53.691-23.234 13.571 2.9972 41.873 18.861 51.91 25.6 21.815 11.892 58.392 28.55 92.664 29.824 82.196 5.1376 128.17-39.509 130.58-85.861-2.2188-0.3704-4.4843-0.74709-6.7754-1.127zm-72.174 0.0449c2.9306-0.0225 5.913 1.1988 7.7031 3.8574 1.5975 2.3977-0.10651 4.0199-1.3398 2.1211-2.2973-2.5641-8.0702-3.7643-11.391-1.5391-1.4877 0.9164-3.0316-0.29127-1.1328-2.2246 1.6326-1.428 3.8808-2.1973 6.1602-2.2148zm-0.68946 6.0254c4.896 0 8.875 4.0358 8.875 8.9883 0 4.9776-3.979 8.9922-8.875 8.9922-4.9148 0-8.8848-4.0146-8.8848-8.9922 0-4.9525 3.97-8.9883 8.8848-8.9883zm-0.0781 1.8301c-3.9199 0-7.0996 3.1629-7.0996 7.0859 0 3.9293 3.1797 7.0996 7.0996 7.0996 3.9231 0 7.1055-3.1703 7.1055-7.0996 0-3.9231-3.1824-7.0859-7.1055-7.0859zm206.56 3.7461c-3.0192 0.32014-6.0105 0.63742-8.9199 0.93555 0 0-1.5658 0.26382-4.3184 0.56836l1.6855 3.3418c1.1235 2.1311 2.3173 4.1945 3.5508 6.2031 2.9439-3.4805 5.623-7.1666 8.002-11.049zm-347.25 1.0625c-2.3355 0.0495-4.5786 0.72171-6.5098 2.0801-4.0893 2.8936-5.8686 8.6359-5.084 14.404-1.8328 3.5621-0.72162 8.8166 3.0508 12.793 4.0581 4.284 9.7522 5.5684 13.418 3.2773 3.2985 0.26987 6.474-0.45792 8.8184-2.4258 5.8533-4.8677 6.1137-14.431 0.73438-22.092-3.7026-5.241-9.2897-8.146-14.428-8.0371zm135.74 2.0117c0.18702-0.0301 0.39408 0.30868 0.51758 0.74609 1.9365 3.0537 7.3231 3.2961 8.9551 0.92969 0.83787-1.1957 0.82422 0.44531 0.82422 0.44531-3.3864 6.6787-11.112 2.456-10.588-1.6113 0.0741-0.34135 0.17881-0.49169 0.29101-0.50977zm-135.14 1.8516c9.83 0.54972 21.037 16.884 9.2285 25.578 10.9-14.176-10.307-30.686-18.674-17.57 1.9631-6.0226 5.5988-8.2229 9.4453-8.0078zm0.34765 5.8262c0.2444-0.01 0.51709 0.03 0.81446 0.13281 2.2032 0.76266 5.6172 3.6597 6.4551 5.0469 2.1844 3.5872-0.13736 5.398-1.082 3.3926-1.0735-2.3193-4.57-5.2945-6.5254-5.668-1.7328-0.33506-1.3729-2.8354 0.33789-2.9043zm-5.6953 4.2344c2.6814-0.0655 5.7242 1.2392 8.1035 3.7539 3.8132 4.0235 4.466 9.5948 1.4688 12.426-2.9877 2.8591-8.5071 1.9013-12.32-2.1191-3.81-4.0141-4.464-9.5717-1.4668-12.428 1.1275-1.0604 2.606-1.5935 4.2148-1.6328zm-0.23437 1.6133c-1.0734 0.0612-2.0688 0.44007-2.8692 1.209-2.2911 2.2283-2.0204 6.9365 1.3125 9.9902 3.0883 2.8372 7.296 4.3462 9.791 2.5039 2.856-2.1656 0.95472-7.752-1.2578-10.291-1.875-2.1469-4.615-3.5468-6.9766-3.4121zm-0.65626 3.1387c0.28318-0.077 0.54022 0.0698 0.63672 0.73828 0.4488 3.038 3.6589 6.2317 6.7031 7.0352 0.7344 0.17573 0.97287 1.2901-0.55859 1.5664-5.1063 0.4864-9.682-5.7148-7.7988-8.4609 0 0 0.54561-0.7505 1.0176-0.87891zm551.23 11.521s0.86568 13.301 0.58008 16.553c0 0 8.8496 2.6575 13.871 2.3594 0 0 0.31872-4.1184-11.225-7.668 0 0 49.65 4.7269-2.6465 15.953 0 0 0.28632 10.352-1.1856 16.867 0 0 27.087-7.1117 35.457-9.4844 9.4311-2.6489 27.758-11.221 9.1465-23.336 0 0 4.1522 12.398-41.34 18.32 0 0 27.172-3.8412 34.547-13.012 0 0 7.0775-5.9098-7.375-9.1738-14.079-3.1605-16.25-1.4661-29.83-7.3789z" fill="#311d00"/>
   <path d="m443.54 486.29c1.3888-6.1435-3.0624-9.4624-7.4617-4.3781-1.8595 2.1184-2.7305 4.0721-3.5072 6.5907l-0.1177 0.3767c-0.7556 3.2247-0.3766 5.8846-0.3766 5.8846-1.3205 1.1769-2.2597 2.2832-2.9918 3.3189-0.2565 0.2825-0.4449 0.5178-0.612 0.7532-1.1534 1.6006-1.7865 3.2013-2.0925 4.237-0.0942 0.3766-0.1672 0.6826-0.2119 0.8709-0.0259 0.1177-0.0259 0.1883-0.0259 0.1883-0.1624 1.0828-0.233 2.0008-0.233 2.754 0 1.6006 0.3036 2.6128 0.6826 3.2248l0.0212 0.0235c0.1177 0.2118 0.2613 0.3766 0.4001 0.4943 0.0236 0.0471 0.073 0.0471 0.0942 0.0706 0.073 0.0706 0.1671 0.1412 0.2377 0.1883 1.1511 0.7297 2.6104 0.3531 2.6104 0.3531 3.8627-0.5178 8.3115-6.0494 8.3115-13.958 0-0.3295 0-0.6355-0.0236-0.9651 2.3539-2.3538 4.0698-4.59 5.2962-10.027zm-309.84-285.4c-0.6097-0.4496-1.3864-1.0122-2.142-1.5536-9.3424-6.7084-31.259-14.876-50.749-16.712-19.794-3.2012-30.835 10.71-26.999 21.302l-1.0828 2.6811c-1.0592 2.5445-13.744 28.437-12.334 39.641 10.475-19.207 19.681-31.447 22.526-34.319 0.0965-0.4472 0.19066-0.8968 0.32953-1.3181-0.23303-2.7776 0.37662-11.087 16.618-8.0502-4.9431-9.5095-23.371-4.2604-19.793 8.3562-2.6857 3.3401-9.1824 13.888-9.1824 13.888-0.28011-0.0707 0.30836-3.1307 0.25892-2.9188 2.1891-4.5665 6.0023-12.431 6.0023-12.431-2.9164-18.475 23.633-19.888 25.539-6.3059 0.04943 0.0235 0.09416 0.0235 0.14359 0.0471 1.3864 0.2589 1.3864 0.047 2.328 0.5413-1.1534-5.5574-3.8109-8.568-6.9438-10.171-5.694-2.8694-7.344-7.9301 1.2946-7.2946 8.7798 0.612 24.362 3.1071 42.795 12.052l3.8815 2.1161c-7.7912 4.9219-15.983 5.7457-21.585 6.1459-4.3781 0.306-11.393-0.8709-16.475-1.9066 0.30365 0.1177 0.60965 0.1883 0.93919 0.306 21.138 6.9674 34.131 2.5892 44.629-4.0957zm320.74 307.34-3.5543-1.4123c-0.6144 1.271-1.6736 1.9301-3.3189 2.2361-0.4496 0.0942-0.9651 0.1648-1.5088 0.2119-129.18 230.82-527.1 102.89-431.34-202.57 6.7296-21.491 15.062-40.227 22.95-55.292-0.68262-2.754-1.6712-7.9324-0.07297-14.829 2.5892-9.792 4.7807-15.794 12.64-33.142-3.1777-11.724 7.7912-28.999 34.416-23.868 31.657 4.896 48.228 16.383 52.041 19.325 1.0827-0.7532 2.1655-1.53 3.2012-2.3068 56.139-43.829 147.99-47.312 181.88 4.5665 13.558-2.8011 30.412-0.5202 30.412-0.5202 17.56 1.1557 31.706 5.8634 42.769 13.184-1.3394 2.1655-2.6364 4.4017-3.8604 6.7085-14.144-9.5802-34.602-14.69-63.318-12.358l-1.8337 0.2354c4.5641 9.0623 7.5559 19.56 8.5657 31.518-2.1185 0.353-4.3076 0.7273-6.5884 1.1063 0.2824-8.0502-0.4943-16.618-3.5096-25.068-1.6242-4.6394-3.559-8.7022-6.6896-13.153 0 0-0.3249-0.5461-0.299-0.5461-6.8991-10.239-16.056-17.983-26.669-23.515-41.414-21.601-105.09-9.8438-143.82 17.195-1.0286 0.718-2.0502 1.4406-3.0412 2.1773-16.486 12.287-27.839 15.093-41.371 13.038-4.5123-0.685-9.2647-1.909-14.533-3.5049-23.254-7.038-22.362 6.4496-22.362 6.4496-19.49 27.775-37.45 57.41-52.797 113.29-20.057 80.294-4.5829 147.52 30.814 197.57 0.11063 0.1553 0.2142 0.313 0.32483 0.4684 0.23774 0.3366 0.48725 0.6638 0.72734 1.0004 29.503 40.983 72.437 70.276 120.08 85.565 33.957 5.7764 65.489 3.8274 93.888-3.3754 0.2-0.0518 0.4048-0.0918 0.6025-0.1412 0.3272-0.0848 0.6473-0.186 0.9722-0.2707 28.154-7.3652 53.192-19.881 74.396-35.162 25.744-18.548 45.841-41.15 59.027-63.467-0.2918-0.1624-0.5343-0.3696-0.8003-0.5579-0.4825-0.3437-0.9038-0.7367-1.2734-1.1769-0.1601-0.193-0.3554-0.3578-0.492-0.572-0.5555-0.8662-0.8944-1.8242-1.1016-2.8223-0.4189-2.0243-0.2259-4.2157 0.2025-6.2071 0.4802-2.2267 1.2287-4.178 1.7089-5.3291 0.2212-0.5272 0.3884-0.8991 0.4401-1.0357 0 0 6.419-18.466 8.448-24.332 0 0 2e-3 -5e-3 2e-3 -7e-3 1.2923 0.2589 2.5634 0.5178 3.858 0.7767l-9.5331 26.41c-3.7638 8.9446 0.4496 12.264 0.4496 12.264-1.1087-3.3189-0.1648-7.1557 0.4449-9.1564 1.2263-3.9074 5.3903-15.347 8.8763-24.174 0.6568-1.7419 1.2711-3.3896 1.8101-4.9666 1.0381 0.2118 2.0714 0.4001 3.1095 0.612-2.9423 8.874-6.9933 19.302-8.2644 22.762-1.0569 2.8952-1.5276 3.978-2.8717 8.6386-1.8101 6.3083 0.6591 6.426 3.319 6.6614 1.5323 0.1176 6.0964 0.0235 7.2969 0 2.7563 1.4829 8.6151 4.4252 12.172 6.1906-42.44 71.722-127.53 119.72-239.06 103.38 88.01 21.42 187.93-3.9074 248.05-89.634 3.2035-5.3197 5.9081-8.262 10.736-17.866-0.6614 0-1.4146 0-2.142 0.0236-3.3424 4.7077-6.7343 6.2377-10.898 6.3083-0.2118 0-8.2172 0-7.1557-8.1208 0.2825-2.5186 1.3653-5.5315 1.9985-6.9438l0.0729 0.0235 5.9553-12.57 1.577-3.319 5.7646-11.628s4.284-8.4973 4.5217-13.017l15.462-0.306s0.2377 4.7547-3.0812 13.182c-2.4033 6.0494-9.5825 28.317-11.958 32.742-0.0494 0.0706-0.0941 0.1412-0.1177 0.2119 0.7509 0 3.8368-0.0471 5.5528-0.4473 3.0364-7.7441 7.4617-21.02 10.83-31.447 0 0 3.9074-0.1883 3.8815-0.1176 1.3205-0.1177 6.6379-0.565 8.5445-0.9416l-15.557 35.166" fill="#311d00"/>
   <path transform="matrix(.75 0 0 -.75 0 792)" d="m321.78 223.83c-26.469 0.0887-52.9 3.3498-78.572 9.5918 148.72-21.765 262.16 42.222 318.75 137.86-4.7297 2.3476-12.564 6.268-16.221 8.2422-1.6225-0.0377-7.705-0.16166-9.7324 8e-3 -3.5433 0.29187-6.8454 0.46825-4.4414 8.873 1.7859 6.2141 2.4397 7.676 3.8457 11.533 1.6728 4.6041 7.0735 18.514 11.006 30.35-1.384 0.25733-2.7651 0.52742-4.1523 0.79101-0.7156-2.1028-1.5161-4.3038-2.4199-6.6074-4.6167-11.763-10.187-27.03-11.822-32.225-0.82534-2.6771-2.0741-7.7936-0.58008-12.219 0 0-5.6187 4.4257-0.60352 16.361l12.701 35.211c-1.7167 0.33267-3.4263 0.6774-5.1367 1.0195-38.537 7.73-76.246 17.932-97.434 26.805 0 0-15.865 5.7373-27.113 14.914-0.42053 0.34533-0.61154 0.63845-0.65234 0.89258-3.2044 0.93533-6.2985 3.1032-8.373 5.9121-1.5817 1.2428-5.2254 4.1714-6.8418 5.998-4.4535 5.1408-8.3583 9.6842-13.336 16.529-4.3467 6.4715-19.967 31.197-33.914 53.771-1.1895 0.44573-2.3641 1.0643-3.4688 1.9336-3.6657 2.8936-6.0695 7.9036-5.1719 13.082-11.295 18.319-17.946 28.944-20.701 33.363-6.2236 0.4644-9.3646 5.3606-9.6816 5.9883-2.7272 5.4672-14.594 24.939-16.734 27.086-1.2585 1.2553-4.0873 6.4718-2.8633 12.416l-1.0566 2.0957s-26.121 38.949-26.08 38.877c-2.2471 3.1761-2.5927 6.7379-1.0078 10.105 2.1531 4.5351 7.5192 7.9424 13.074 8.3223 3.0003 0.19773 5.715-0.55743 7.8711-2.1016 10.577 1.7607 83.622 13.928 138.69 23.102 2.2911 0.37986 4.5566 0.75655 6.7754 1.127 3.7316 0.62133 7.3501 1.2242 10.85 1.8047 3.0285 0.50853 5.966 0.99724 8.7812 1.4648-1.3589 15.959-5.3315 29.938-11.404 42.021l2.4277 0.32421c38.283 3.1133 65.557-3.6948 84.432-16.49 1.6257 3.0883 3.3421 6.0798 5.1562 8.9766 18.366 29.285 46.424 48.733 83.125 58.449 37.69 9.9489 80.471 8.9702 121.69-3.1191 4.9243 2.5139 9.6284 0.97903 12.867-0.6875 0.93533-0.4896 1.7663-1.0952 2.5195-1.7793 44.55-10.153 52.144-13.851 54.871-16.346 0.32014-0.182 0.60267-0.37605 0.89453-0.56445 12.115-7.1085 11.508-26.664 11.461-27.59-3.7631-51.047-15.233-101.94-34.541-156l-2.3418-5.6016c-4.8867-12.717-13.721-15.134-27.662-13.389l-12.096 1.3242c-24.577 2.1937-64.267 6.3802-97.143 0.63672l-44.869-106.46c-0.40174 9e-3 -0.77012 0.0503-1.1562 0.0723-0.90387 0.0503-1.7757 0.13457-2.6074 0.25391 12.193 28.921 52.293 123.89 52.293 123.89-7.7019 1.3872-16.156 1.9609-16.156 1.9609l-50.662-118.78c-1.2743 1.2743-2.1118 2.3924-2.5606 3.0703-0.27934 0.41427-0.42969 0.67969-0.42969 0.67969s16.964 40.458 35.936 85.699c-2.1467-1.1079-4.1596-2.3123-5.459-3.4609-8.9792-5.5175-29.392-20.392-46.656-46.184 0 0-0.10212 0.39552-0.25586 1.0703-0.20093 0.86626-0.49741 2.2436-0.83007 4.0703 23.896 36.729 56.061 50.477 56.061 50.477l7.9648 19.527c-31.927-9.2742-58.639-38.242-66.084-46.91 0 0.7908 0.01 1.5868 0.0254 2.3965 0.0156 0.69667 0.0285 1.3883 0.0566 2.0977 18.103 22.901 41.811 39.189 67.016 47.785-18.79 2.3979-39.234 4.78-58.551 6.7949-3.6909 0.386-7.326 0.7508-10.91 1.1055-2.4605-9.5567-5.5266-18.605-8.957-26.74-18.052-42.708-67.354-23.178-63.898 2.5449-15.027-33.174-30.314-66.92-41.723-92.104 4.3813-4.7892 13.303-13.853 27.689-23.074-10.043 4.444-18.004 11.445-18.004 11.445-3.9295 3.0287-7.4756 6.1639-10.705 9.3809-0.86626-1.9113-1.7016-3.7591-2.5176-5.5605-2.9281-6.4559-5.5181-12.173-7.6836-16.953 7.3533-4.736 14.855-9.5855 24.299-13 27.371-11.132 58.99-18.712 89.254-25.045 1.6916-0.35467 3.3705-0.69652 5.0527-1.0449 0.92587 15.099-6.7218 20.863-19.875 23.594-8.5712 1.7671-15.552 2.0664-19.096 3.2559l8.1582 0.28515c0.408 0.0501 9.4221-0.0657 21.957-4.3184 8.2133-3.06 14.399-8.5812 11.766-23.42 1.406-0.2856 2.8205-0.5827 4.2109-0.86523 2.2313 14.107 0.16073 27.747-27.197 30.393 4.6764 3.22 47.269-4.674 72.91 1.2012 0.61826 0.2824 11.363 3.9808-0.90821 9.3476 23.777-5.2884 25.089-28.997 20.572-46.604l0.97656 0.11523c4.4127 0.31694 8.223 0.87897 11.258 1.4375 0.012 0.0189 0.0258 0.0378 0.0352 0.0566 2.2911 0.2448 5.062 0.55929 7.918 0.92969 17.717 1.7732 16.088-19.174 6.7852-21.873-7.0961-2.0713-8.9068-2.1246-10.689-2.4258l-2.4961-0.28515-22.113-49.273 12.25-5.668 31.613 57.062c14.685 23.303-9.6596 32.914-23.07 25.896-1.7639 0.90067-3.0638 1.7705-4.1152 2.7246 3.7756 2.5579 8.5566 4.0137 13.77 4.0137 8.8881 0 16.653-4.0521 20.256-10.58 2.6268-4.7673 4.2358-12.88-2.9199-24.223l-33.598-60.641-26.842 11.844c2.1939 0.4236 3.6048 1.2954 4.4238 2.9902l4.7363-1.8984 20.762 46.91c-2.5673-0.51773-9.6581-1.1068-11.406-1.248 0.0251 0.0816-5.1621-0.17969-5.1621-0.17969-4.5131-13.903-10.407-31.585-14.443-41.936-2.3036-0.5116-6.3963-0.57856-7.4258-0.58789 0.0565 0.10666 0.11423 0.18896 0.17383 0.29883 3.1511 5.8847 12.745 35.565 15.939 43.652 4.4189 11.239 4.1172 17.551 4.1172 17.551l-20.635-0.38867c-0.31706-6.0259-6.0293-17.354-6.0293-17.354l-7.668-15.504-2.0996-4.4336-7.9668-16.764-0.0664 0.0234c-0.85987-1.8768-2.2955-5.8985-2.6973-9.2441-1.3841-10.843 9.2847-10.842 9.5703-10.836 5.5268 0.1004 10.053 2.1399 14.51 8.4199 0.99173 0.0157 1.9693 0.0317 2.8574 0.041-6.4307-12.811-10.048-16.751-14.307-23.844-62.617-89.279-157.63-129.42-252.16-129.1zm250.34 150.39c-0.67828-4e-3 -1.549 0.11509-2.3164 0.60156-0.0941 0.0628-0.21908 0.15587-0.31641 0.25-0.0283 0.0313-0.0935 0.0329-0.125 0.0957-0.18507 0.15694-0.37822 0.37581-0.53516 0.65821l-0.0273 0.0312c-0.50533 0.816-0.91016 2.1666-0.91016 4.3008 0 1.0043 0.094 2.2281 0.31055 3.6719 0 0 6.2e-4 0.0931 0.0352 0.25 0.0596 0.25107 0.15565 0.65998 0.28125 1.1621 0.408 1.3809 1.2531 3.5143 2.791 5.6484 0.2228 0.31387 0.47441 0.62724 0.81641 1.0039 0.97613 1.3809 2.2276 2.8566 3.9883 4.4258 0 0-0.50551 3.5461 0.50195 7.8457l0.15625 0.50195c1.0356 3.3581 2.1984 5.9645 4.6777 8.7891 5.8657 6.7791 11.801 2.3534 9.9492-5.8379-1.6352-7.2499-3.924-10.233-7.0625-13.371 0.0315-0.43947 0.0313-0.84582 0.0313-1.2852 0-10.545-5.9318-17.921-11.082-18.611 0 0-0.48578-0.12695-1.1641-0.13086zm-13.816 1.9062c-0.29494 0.59-0.22461 2-0.22461 2-0.11934 1.8643-0.0468 2.8089 1.9492 8.207 3.1228 8.4549 19.471 42.366 21.363 47.303 9.4563 24.54-14.971 29.085-17.51 18.238 25.983-1.9741 15.434-29.172 0.68945-25.324-5.6179-13.9-10.061-27.791-10.061-27.791s-5.7571-15.078-1.9219-19.666l5.293-2.7559s0.44081-0.28627 0.42188-0.21093zm12.094 3.3086c7.0616 0.0941 9.1051 10.356 6.9082 13.871-3.0129-1.9459-7.5955-8.5043-6.9082-13.871zm-21.984 1.6348c-2.1907 7.0677 1.9707 17.98 1.9707 17.98l10.123 28.281-5.3066 0.98829s-6.5877-18.166-10.73-30.738c-3.1541-9.5692-0.89453-14.211-0.89453-14.211zm30.461 18.357c5.552 1.1613 8.9769 8.096 5.7129 13.055-3.5496-3.5151-5.3676-7.4054-5.7129-13.055zm29.715 28.381c8.2071 0.794 29.206 3.2164 33.562 4.6758l0.20117 0.0703 0.19532 0.0273c3.1008 0.4488 4.9368 4.4542 4.6387 7.7715-0.17587 1.7827-1.2464 5.834-7.3633 5.834-5.5299-1.2177-20.017-2.5954-27.424-3.3047 0-6.2016-3.8106-15.074-3.8106-15.074zm-42.225 3.627c4.5755-0.17778 8.2604 3.0578 8.7695 6.4356 0.46134 3.2044-1.1691 6.9446-7.3047 7.9238l-2.8496 0.56445c-37.583 7.5199-80.146 16.036-115.74 30.504-11.201 4.0392-17.174 7.4377-23.451 12.205 0 0-3.4617-7.5066-4.7109-9.6973-1.9804-3.512-2.2503-3.8608-3.9043-4.793 5.1377-3.4617 11.81-6.7264 20.846-10.502 26.169-10.972 80.474-24.986 127.42-32.559 0.31228-0.0431 0.62075-0.0702 0.92578-0.082zm20.449 18.072s12.414-7.9e-4 18.723 0.0996c0 0-4.6492 8.7657-24.34 7.3848 0 0 5.3316-3.6304 5.6172-7.4844zm-174.14 29.744c1.8956 0.0188 3.6337 0.60394 3.7246 0.75781l72.025 159.46s-9.9556 0.45107-17.742-1.1777c-30.685-67.125-66.622-145.78-66.666-145.87-1.494-2.6708-1.4697-5.3092 0.043-7.8828 2.0087-3.3487 5.9602-5.3382 8.6152-5.291zm-13.838 7.9961s-0.31086 3.903 1.7637 8.0898c1.6759 3.3456 5.0625 11.742 5.0625 11.742 0.56814-0.5492-7.5826 9.5779-12.127 16.715l-27.395 44.955-7.373-8.0957s-3.147-3.7773-6.1035-3.7773c14.34-23.269 27.407-43.947 31.848-50.598 4.6668-7.6641 15.796-20.786 14.324-19.031zm167.1 23.158c-24.747 2.9941-31.64 65.043-17.633 80.521-5.1063-23.761 0.31175-67.914 17.633-80.521zm-158.36 0.59961 9.8301 21.668 2.8652 6.3145c-12.908 24.197-12.723 51.194-7.7363 76.832-0.42374-0.3264-0.84065-0.63999-1.2676-0.97266-1.5409-1.4405-3.2358-3.0557-4.9902-4.7441-11.537-11.091-26.945-26.753-37.293-37.791 14.547-23.52 28.561-45.931 28.561-45.906 3.7944-5.9505 7.8187-12.083 10.031-15.4zm15.174 33.447 42.58 93.852c-19.681-2.2188-32.481-7.9616-45.982-17.449-4.9493-25.613-6.3741-51.69 3.4023-76.402zm-71.787 16.957c1.8066-0.0659 3.6471 0.4899 4.9668 2.0293 5.6429 7.5417 37.908 40.895 53.846 55.803 17.682 13.79 30.4 20.992 55.084 23.779 13.367 1.588 29.14 1.3667 29.922 1.3887 32.527 0.82227 151.07-13.679 185.92-20.549 4.4221-0.5868 7.0742-1.6289 7.0742-1.6289l-0.0703-0.67188 0.20508-1.4688c0.0627-0.5116 2.067-2.1175 3.7461-2.877 3.1949-1.4688 7.4742-1.498 11.049 1.4238 24.853 45.822 49.41 130.92 43.727 195.21-0.31067 3.4084-1.6931 6.1759-4.3106 7.5098 0 0-5.6886 2.5732-11.441-0.37695 0 0 0.22072 0.46843-5.9746 2.543-38.239 9.8391-79.233 10.42-113.75 1.293-31.328-8.2729-68.387-26.438-88.957-71.996 0 0-2.6331-4.9527-3.2168-7.3223 0 0 10.51 0.20011 17.408-0.37109 31.925 68.403 114.23 81.145 184.76 63.09 0 0 6.4458-1.1077 8.2598-3.0566 1.4688-3.3896 1.3125-12.115 1.3125-12.115-0.0911-1.9897-1.7206-44.108-9.4883-72.131-0.6904-2.9471-1.6288-4.7764-2.3789-5.4668 0 0-2.1248-0.89279-3.6406-0.93359-3.7755-0.14133-8.7246 0.9082-8.7246 0.9082-43.508 10.354-110.8 18.946-163.91 24.322-0.0941 0-4.1649 0.62835-11.346 0.92969l-5.7344 0.1621c-10.078 0.10987-24.364-0.51118-42.363-3.3672 0 0-198.13-32.241-197.31-32.26l10.596-14.512s190.73 31.33 190.77 31.33c29.075 4.3561 42.595 2.264 42.953 2.1856 51.402-2.856 146.43-16.948 169.4-23.068 0 0 12.428-2.9444 14-4.5293 1.0137-1.0263-1.5508-10.354-1.5508-10.354-0.10347-0.30747-9.4175-30.759-14.078-42.494l0.0684 0.24415c-0.11306-0.47707-2.137-6.989-4.2617-7.9746l-1.5527 0.0254s-2.7469 0.53657-6.0957 1.293c-44.786 8.1443-126.6 19.575-174.68 22.479 4.1553-0.26053-19.456 0.83747-37.812-0.43359-26.134-1.4688-55.137-7.9603-83.982-39.27-0.31387-0.31387-32.227-30.722-45.072-44.801-3.2076-4.5508-1.5024-9.573 1.8652-12.219 1.1863-0.9494 2.9591-1.6372 4.7656-1.7031zm-11.006 16.467c4.7297 6.5091 12.291 13.342 12.291 13.342l-19.01 30.148c-2.5579 2.0243-7.9308-0.0505-11.289-3.2832-0.76893-0.74387-4.454-4.5507-2.2383-7.209l0.11133-0.13476 0.0879-0.16016c0.29186-0.4644 4.411-7.3193 20.047-32.703zm15.834 16.082c13.994 13.994 30.098 29.338 30.236 29.482 9.5597 10.369 19.302 18.005 29.016 23.68 2.3036 1.3432 4.6004 2.5507 6.8945 3.6836 6.2016 18.953 12.968 35.722 15.902 48.104-2.3759-14.415-6.6691-29.833-10.865-45.764 16.584 7.1525 32.836 9.3527 47.684 10.188 0.68427 0.0439 1.3841 0.0842 2.084 0.125l0.98437 2.1738c-5.894 15.683-16.85 32.494-31.049 42.738 0.0471 0.82227 0.0878 1.6469 0.11914 2.4785-4.1081-0.65587-8.4305-1.3442-12.896-2.0566-3.2672-0.52107-6.612-1.0546-10.023-1.5977-1.6037-0.25413-3.2161-0.51024-4.8418-0.76757-50.206-8-111.37-17.741-122.6-19.527l11.82-17.488c15.344 9.1643 37.102 22.68 37.102 22.68 15.005 9.5472 26.557-4.1756 30.217-9.0371 2.8308-3.7944 11.553-15.525 11.268-25.584-0.31706-9.77-7.7932-15.005-14.484-19.418l-31.168-20.453c2.878-4.6637 7.5294-12.202 14.604-23.639zm402.64 13.605c3.2392-0.0445 12.311 1.4716 16.955 18.924 20.78 58.262 36.905 138.07 32.285 165.67 0-3.5464-5.51-10.157-14.963-12.115 0 0 0.18794-3.6372-0.0977-8.0781-2.3664-24.053-11.025-67.797-11.025-67.797 13.386-4.3343 12.207-31.733-10.641-31.557-5.5017-24.828-13.494-44.623-13.494-44.623 12.422-6.8011 6.6022-18.247-0.20508-20.318 0 0 0.43804-0.0932 1.1856-0.10351zm-6.2441 2.707c4.2401 0.71866 6.0708 3.224 6.5762 6.6543 0.204 1.2931-0.45031 6.1988-5.8203 7.2031l-1.9453 0.42383c-4.8489 1.5096-14.546 3.7937-24.244 5.6172-6.0133 1.1517-11.566 2.2165-11.07 1.9277-1.2711-2.812-2.161-5.715-5.8457-12.877 10.665-1.8297 24.36-4.5764 33.842-7.3633 2.9501-0.89134 8.5078-1.5859 8.5078-1.5859zm-20.82 0.0703c-4.4409 1.7763-25.127 4.4121-25.127 4.4121-2.7775-2.2629-5.554-2.5799-6.2852-2.627 7.8995 0.55866 31.412-1.7852 31.412-1.7852zm-88.43 1.5c25.698 3.5401 44.994 1.4648 44.994 1.4648-4.4159 0.58067-4.7188 4.7305-4.7188 4.7305-10.643 2.6583-35.234 5.332-35.234 5.332zm-329.21 0.45899c-0.50213 8.9696 13.236 16.181 19.742 14.414l34.775 23.275c5.2224 3.7473 10.351 10.168 7.2969 18.855-0.44254-8.1255-10.535-14.559-10.535-14.559s-37.372-22.011-48.834-29.191c-6.5625-4.1145-5.8977-9.804-2.4453-12.795zm26.1 9.6152c11.983 7.7175 27.744 18.052 34.551 23.23 12.206 9.2553 5.6055 20.389 5.6055 20.389 1.2272-6.6912-1.8048-13.361-9.5976-18.631-6.8136-4.5759-33.381-22.264-33.381-22.264zm-31.779 0.36328c1.4939 3.2577 6.0566 5.9082 6.0566 5.9082 11.559 7.2531 35.888 21.975 42.893 25.863 7.5324 4.1929 9.043 6.1953 9.043 6.1953 8.7249 8.3012 7.0682 16.536 2.8125 22.295-4.8364 6.4872-14.106 10.622-21.836 5.4902l-10.494-6.4746 0.0156-0.0254-3.7969-2.2949-32.604-19.992-0.084-0.0644-0.10742-0.0625c-0.0501-0.0252-5.436-2.5246-6.7949-7.543-0.91027-3.3771 0.16439-7.2274 3.1836-11.486 6.8888-9.6884 10.235-15.238 11.713-17.809zm444.6 6.6445c3.5025 8.1192 9.064 25.526 10.555 31.725l3.3457 13.717c-10.79 2.5171-22.65 4.2411-34.529 5.4023-4.6387-15.52-9.8489-30.155-15.379-43.102 26.749-3.7441 35.082-7.7109 35.082-7.7109 7e-3 -7e-3 0.0134-0.0152 0.0234-0.0215zm-64.713 12.1c0.87484 9e-3 1.6607 0.19416 2.3574 0.54883 2.1531 1.1361 2.9453 3.7012 2.9453 3.7012l0.041 0.14063 0.0527 0.10351c3.3331 8.4141 9.3838 26.481 12.541 36.01-12.836 0.51466-24.616 0.53112-33.727 0.38672l-15.023-35.65c10.093-1.5912 19.431-3.16 27.613-4.6445l0.15624-0.0469 0.15626-0.041c1.0482-0.34993 2.0119-0.51683 2.8867-0.50781zm-354.75 5.8496c-0.34071-6e-3 -0.68988-2e-3 -1.0449 0.01h-0.0801l-0.0762 0.0215c-9.0857 0.6308-11.207 5.5402-12.246 8.3711 0 0-2.3323 6.2476 1.1074 11.627 0.0535 0.0879 4.4567 8.8066 16.088 7.002 0 0 0.5346 1.52 1.6582 3.6133l8e-3 -0.0195c0.99174 1.8233 2.6534 3.5373 4.5176 4.6641 13.703 8.1411 21.244-2.2312 21.316-2.3223 0.0627-0.0909 6.2961-8.2352-2.8086-17.18-0.23853-0.226-5.8011-5.1736-13.371-4.2383-0.76919-3.0283-4.5063-11.37-15.068-11.549zm319.76 0.62109c10.027 27.923 22.854 53.41 22.854 53.41-2.652 1.1832-15.629 3.0566-15.629 3.0566-3.1071-5.894-22.771-54.012-22.771-54.012 2.3412-0.2888 15.547-2.4551 15.547-2.4551zm-321.49 1.8984c0.38113-0.0113 0.78411-7e-3 1.2109 0.0137-1.4499 2.2565-1.9933 5.6486-2.1973 9.082-0.70613-0.58694-1.2643-0.60298-1.9609-1.3594l-0.0137 2.4707c0.4488 0.80347 1.1644 1.0474 2.0684 1.6562 0.0281 2.1624 0.12325 3.8119 0.53125 5.2617-0.46773-0.15373-0.73501-0.54939-1.2246-0.77539-7.0929-3.9952-4.7324-13.719-4.7324-13.719 2.0047-1.6834 3.6505-2.5514 6.3184-2.6309zm5.5137 0.43945c5.0748 1.61 8.7707 6.073 8.5195 10.643l0.58399 0.0566c-0.42067 3.3361-3.928 7.866-11.074 6.7676-0.37347-1.45-0.40863-2.8951-0.49023-4.4863 1.1676 0.408 2.48 0.6285 3.8828 0.5625-0.0408-0.6528 0.13672-2.0742 0.13672-2.0742-1.4217-0.11614-2.68-0.58052-4.0547-1.1895 0.1288-3.8571 0.94569-7.3825 2.4961-10.279zm295.45 0.1543c4.4755 10.665 8.7119 20.776 12.5 29.809l-76.271-13.342c0.0219 0.4488 0.0406 0.90737 0.0625 1.3594 0.0377 0.80974 0.0733 1.6258 0.10156 2.4512l77.426 13.291c1.4751 4.2432 7.0176 16.775 7.0176 16.775l-84.277-14.33c-7e-3 0.85374-0.0226 1.7356-0.0352 2.627-7e-3 0.41746-0.012 0.81259-0.0156 1.2363l83.15 14.133c-27.753 4.7265-56.551 9.12-87.455 12.396-3.7223 0.39547-7.4755 0.77188-11.264 1.1328 5.5677-18.209 6.1763-38.518 3.6875-58.096 3.5464-0.37667 7.1309-0.76233 10.74-1.1641 21.442-2.3915 43.844-5.2882 64.633-8.2793zm-309.89 5.1719c-1.1769 14.77 12.3 16.917 19.863 14.127 1.6447 11.964 12.054 12.271 17.082 11.471-6.2988 3.9953-18.435 1.3091-20.686-9.9297-9.522 2.9031-20.299-4.7744-16.26-15.668zm-32.564 1.6328c1.5631 2.9972 14.029 10.469 14.029 10.469-5.2349 7.7395-23.885 35.494-23.91 35.52-1.7292 2.6457-4.4533 3.0537-6.4336 2.9219-3.8008-0.23854-7.7099-2.6768-9.1035-5.627-0.86306-1.7796-0.6656-3.5907 0.60547-5.3984zm58.955 3.9668c10.235-0.3044 18.23 9.9295 13.092 17.434l-1.8652 0.31055c-8.9196 1.1612-13.942-2.3654-15.436-10.334 1.3872-1.0044 3.6723-3.7475 4.209-7.4102zm131.82 3.1738c10.213 1.1707 17.918 0.0898 17.918 0.0898l26.088 56.068s-6.6077 1.2937-17.834 0.40234c-5.3103-10.046-11.173-23.717-26.172-56.561zm292.77 13.348c4.5056 0.15222 9.4557 1.8581 11.23 8.0723 0 0 3.5269 10.729-5.625 14.57 0 0-6.7812 3.4595-38.109 9.0586 0 0-2.5496-9.7574-3.7266-14.77 0 0 26.486-5.5146 36.814-9.375 0 0-0.19997-3.4359-5.3125-3.3418 0 0-26.879 6.7998-33.09 7.3867l-1.4688-4.1289s23.023-4.4357 30.719-6.2246c0 0 4.0627-1.4003 8.5684-1.248zm-99.75 8.8301c19.791 0.31387 34.066 0.11719 34.066 0.11719 2.3727 8.7657-5.7969 9.0801-5.7969 9.0801l-22.359 4.4121zm103.31 19.184 0.54492 2.9629c3.5777 19.352 8.9999 48.623 11.043 66.537 0.1036 1.7796-0.0408 3.2174-0.29492 4.4414-3.4084-0.68413-6.0531-0.86041-6.6211-0.88867-10.95-1.7356-21.672-4.9514-31.875-9.3828-1.7607-18.172-4.8964-36.934-8.9922-55.25 10.257-1.8893 29.247-6.653 36.195-8.4199zm-63.004 13.059c0.86359-0.0469 1.2743 0.23777 1.4414 0.35546 1.1581 0.82854 1.5994 2.9675 1.6465 3.6328l0.0254 0.25195 0.0605 0.22656c2.3507 8.3452 4.168 19.485 5.5332 30.529-11.713-8.5775-22.013-18.867-30.201-30.379 7.3095-1.4657 14.216-2.9506 20.471-4.4414 0.39624-0.1075 0.73558-0.16014 1.0234-0.17578zm-26.523 6.0039c14.17 21.279 36.928 36.65 36.928 36.65 0.58373 5.3385 1.0703 18.947 1.0703 18.947-35.735-17.466-54.641-52.029-54.641-52.029 3.2577-0.60253 16.643-3.5684 16.643-3.5684zm-339.03 1.5371c-14.839 0.0596-16.061 15.878-12.496 19.236-1.8391-5.5363 1.6568-16.113 12.205-15.699 10.153 0.43947 13.301 10.966 9.4531 19.236 8.8599-9.1644 1.4586-22.795-9.1621-22.773zm-294.64 1.7871c-1.8737 14.933 15.033 49.455 16.43 52.854l1.4473 3.5684c-5.1063 14.136 9.5992 32.665 36.016 28.406 25.99-2.4543 55.184-13.346 67.641-22.291 1.0105-0.7092 2.0657-1.4732 2.8691-2.0664-13.982-8.9195-31.32-14.747-59.5-5.4512-0.43624 0.1444-0.83997 0.26142-1.2637 0.39649 6.7697-1.3653 16.135-2.9284 21.979-2.5234 7.4601 0.53973 18.401 1.616 28.783 8.1816l-5.2012 2.8281c-24.571 11.926-45.322 15.252-57.051 16.074-11.524 0.82854-9.3005-5.91-1.7148-9.7422 4.1804-2.1247 7.7083-6.1578 9.2461-13.549-1.2585 0.64653-1.2585 0.37732-3.0977 0.72265-0.0691 0.0188-0.13722 0.0312-0.20312 0.0469-2.5233 18.112-37.94 16.245-34.023-8.4141 0 0-5.0969-10.467-8.0156-16.543 0.05963 0.25106-0.72942-3.8136-0.33398-3.8984 0 0 8.662 14.043 12.23 18.496-4.7799 16.825 19.803 23.837 26.4 11.17-21.674 4.036-22.483-7.0489-22.172-10.762-0.17889-0.54294-0.30527-1.1502-0.44336-1.7402-3.7787-3.8415-16.046-20.151-30.021-45.764zm612.1 0.2168c15.918 28.598 37.679 47.274 59.799 57.449 0.4236 6.1325 0.60897 10.071 0.61524 10.178-0.0188 5.1345-2.8935 6.9797-3.3203 7.2402-65.261 17.685-142.86 8.7006-177.85-48.354-1.2335-2.0087-2.4273-4.0721-3.5508-6.2031l-1.6855-3.3418c2.7525-0.30454 4.3184-0.56836 4.3184-0.56836 2.9095-0.29813 5.9007-0.61541 8.9199-0.93555 34.991-3.7568 76.692-9.2695 112.75-15.465zm-318.54 3.8633c-2.2793 0.0175-4.5276 0.78684-6.1602 2.2148-1.8988 1.9333-0.35492 3.141 1.1328 2.2246 3.3204-2.2252 9.0933-1.0251 11.391 1.5391 1.2333 1.8988 2.9373 0.27663 1.3398-2.1211-1.7901-2.6587-4.7726-3.8799-7.7031-3.8574zm-0.68946 6.0254c-4.9148 0-8.8848 4.0358-8.8848 8.9883 0 4.9776 3.97 8.9922 8.8848 8.9922 4.896 0 8.875-4.0146 8.875-8.9922 0-4.9525-3.979-8.9883-8.875-8.9883zm-0.0781 1.8301c3.9231 0 7.1055 3.1629 7.1055 7.0859 0 3.9293-3.1824 7.0996-7.1055 7.0996-3.9199 0-7.0996-3.1703-7.0996-7.0996 0-3.9231 3.1797-7.0859 7.0996-7.0859zm-4.9531 6.8203c-0.1122 0.0181-0.21691 0.16842-0.29101 0.50977-0.52413 4.0673 7.2015 8.29 10.588 1.6113 0 0 0.0131-1.641-0.82422-0.44531-1.632 2.3664-7.0185 2.124-8.9551-0.92969-0.1235-0.43741-0.33056-0.77622-0.51758-0.74609zm-135.14 1.8516c-3.8465-0.2151-7.4822 1.9852-9.4453 8.0078 8.3671-13.116 29.574 3.3939 18.674 17.57 11.809-8.6937 0.60149-25.028-9.2285-25.578zm0.34765 5.8262c-1.7108 0.0689-2.0707 2.5692-0.33789 2.9043 1.9553 0.37347 5.4519 3.3486 6.5254 5.668 0.94467 2.0055 3.2664 0.19462 1.082-3.3926-0.83786-1.3872-4.2519-4.2842-6.4551-5.0469-0.29737-0.10279-0.57006-0.14266-0.81446-0.13281zm-5.6953 4.2344c-1.6088 0.0393-3.0873 0.57241-4.2148 1.6328-2.9972 2.856-2.3432 8.4136 1.4668 12.428 3.8132 4.0204 9.3326 4.9782 12.32 2.1191 2.9972-2.8309 2.3444-8.4023-1.4688-12.426-2.3793-2.5147-5.4221-3.8194-8.1035-3.7539zm-0.23437 1.6133c2.3615-0.13468 5.1015 1.2652 6.9766 3.4121 2.2125 2.5391 4.1138 8.1254 1.2578 10.291-2.4951 1.8423-6.7028 0.33329-9.791-2.5039-3.3329-3.0537-3.6036-7.762-1.3125-9.9902 0.80034-0.76892 1.7957-1.1478 2.8692-1.209zm-0.65626 3.1387c-0.47196 0.12841-1.0176 0.87891-1.0176 0.87891-1.8832 2.7461 2.6926 8.9473 7.7988 8.4609 1.5315-0.27627 1.293-1.3907 0.55859-1.5664-3.0443-0.80347-6.2543-3.9972-6.7031-7.0352-0.0965-0.6685-0.35354-0.81532-0.63672-0.73828zm551.23 11.521c13.58 5.9128 15.751 4.2184 29.83 7.3789 14.453 3.264 7.375 9.1738 7.375 9.1738-7.3753 9.1705-34.547 13.012-34.547 13.012 45.492-5.9223 41.34-18.32 41.34-18.32 18.611 12.115 0.28458 20.687-9.1465 23.336-8.3703 2.3727-35.457 9.4844-35.457 9.4844 1.4719-6.5155 1.1856-16.867 1.1856-16.867 52.296-11.226 2.6465-15.953 2.6465-15.953 11.543 3.5496 11.225 7.668 11.225 7.668-5.0215 0.29813-13.871-2.3594-13.871-2.3594 0.2856-3.2515-0.58008-16.553-0.58008-16.553z" fill="#fff"/>
  </g>
 </g>
</svg>
