<svg xmlns="http://www.w3.org/2000/svg" width="296" height="173.55" viewBox="0 0 298 175.55">
 <g transform="matrix(1.3333 0 0 -1.3333 -259.97 614.68)">
  <g transform="translate(0 .30203)">
   <path d="m308.34 331.29c5e-3 -0.0854-0.0948-0.65241-0.31808-0.90047-0.22713-0.25017-0.55889-0.34198-0.8778-0.41283-0.52304-0.11446-1.0401-4e-3 -1.4546 0.31292-0.34242 0.25833-0.55674 0.62125-0.58195 0.97303 0 7e-3 -2e-3 0.0111-2e-3 0.0188l-3e-3 -2e-3 -3.887 12.657c-2.1766 6.4871-5.468 13.451-11.854 19.611-7.7134 7.4401-19.084 12.586-34.76 15.725-13.664 2.7372-22.66 5.091-29.164 7.6301-6.2438 2.4354-9.925 4.9702-13.534 8.0263-9.1958 7.7886-15.608 17.722-16.024 30.23 0 0 9.15-12.931 19.207-6.7544 4.7528 2.9187 8.1719 2.5015 8.1719 2.5015-3.0924 3.4152-5.3758 7.8713-5.985 12.719-0.488 3.8776-0.16992 8.18 0.94229 12.791 1.8935 7.844 7.4068 13.592 7.461 13.683 0 0-2.1681-18.846 6.8423-25.531 5.5556-3.1274 11.259-1.8671 11.259-1.8671s-7.4832 3.4656-8.5306 14.587c-0.46068 4.8895 0.26261 8.7342 0.45473 9.7158 0 0 9.8776-13.944 19.773-8.2172 2.2129 1.2813 13.893 7.3188 18.929 8.6569 7.3927 1.9619 14.708 2.1006 21.743 0.41117 5.842-1.4042 11.544-4.0761 16.951-7.943 9.6385-6.8923 15.879-15.842 18.114-19.37 0 0 19.4 0.85266 30.015-12.714l0.0167-0.0222 24.554-10.838-2.785-1.7804-0.12083-0.0794 0.12512-0.079c7.9469-5.0496 21.848-14.001 25.634-17.229l8e-3 -8e-3 0.0128-9e-3 7.0337-3.3435-1.2838-3.4045v-2e-3c-0.0837-0.22927-1.9935-5.687 1.6092-8.3892l1.8094-1.3569s0.0209-0.0145 0.0376-0.029l-0.0166-0.044-5.5286-14.647-1.4008 1.8824c-7.7138 10.63-15.002 12.593-18.667 12.669-4.1444 0.0875-4.4365-2.1224-3.9237-3.0732 1.6681-3.0809 10.962-4.6781 14.404-5.0282-2e-3 0 2.2786-0.29587 2.3452-0.30443l-8.9519-8.022-16.228 1.0217-0.0666 4e-3 6e-3 0.0666 0.27284 3.1855v0.0209c-0.0833 0.60456-1.1797 6.0456-14.451 11.508l-0.0376 0.0119-0.0376-0.0162c-2.2577-1.0426-6.888-2.8392-12.563-3.1437-6.8407-0.3693-13.189 1.476-18.87 5.4825l-0.0397 0.0248-0.0457-0.012c-2.2787-0.77578-6.7728-2.5314-11.263-5.6166-8.338-5.7306-12.887-13.225-13.52-22.279 0 0-0.73051-7.4614-0.95767-13.657" fill="#0a2343"/>
   <path transform="matrix(.75 0 0 -.75 194.98 461.01)" d="m183.75 46.035c7.7079 2.3819 10.061 4.727 10.656 6.2891 0.39508 1.0441 2e-3 1.6965-0.0156 1.7227l-0.043 0.06836-0.0762-0.02148c-87.278-23.791-158.67 30.944-161.66 33.285 3.427 3.4572 11.129 8.1198 38.816 14.266 6.1777-4.8257 35.629-25.767 80.078-24.533l-7.2129-10.898s27.536 7.1552 43.252 15.891c-1.212 11.635 5.9966 22.848 17.621 26.281 8.3318 2.4598 16.926 0.33632 23.08-4.9004l19.748 12.604-18.947-7.3535c-8.0552 5.8288-18.693 7.8582-28.875 4.5508-12.598-4.0919-20.953-15.21-22.139-27.607-42.654-10.713-74.104 16.262-80.389 22.199 5.0819 1.6094 9.7685 3.4341 14.021 5.4688 5.181 2.4826 9.8461 5.3334 13.938 8.5156 3.1589-3.8551 15.754-17.093 39.908-17.293 0 0-23.716 6.1368-31.275 25.455 6.7157 7.7774 10.174 16 12.834 23.85 0.60347-7.4609 2.9885-14.309 7.1191-20.357 3.3775-4.9419 7.9125-9.364 13.48-13.145 9.4755-6.4344 18.789-8.804 18.883-8.8262l0.0527-0.0137 0.041 0.0332c19.216 15.491 40.371 3.2941 40.582 3.166l0.0449-0.0215 0.0488 0.0156c5.9147 2.26 10.913 4.7922 14.844 7.5332 3.152 2.19 5.6339 4.5201 7.377 6.9219 2.7075 3.7247 2.786 6.4047 2.7695 6.9609l14.332 0.93946 4.2012-3.5898c-13.025-1.6873-16.971-5.734-17.777-9.2031-1.401-8.3638 7.1378-9.3954 11.029-8.8887 9.073 1.1835 20.103 9.3103 24.256 14.965l3.0742-8.2559c-4.1859-3.1799-5.0347-7.7264-5.0039-10.984v-2e-3c0.0336-3.2022 0.88879-5.8082 1.0664-6.3086l-5.582-2.6074-0.0215-6e-3 -0.01-0.0156c-3.4466-3.7302-40.773-27.202-41.148-27.441l-0.14063-0.08789 0.13867-0.08984 2.7559-1.8379-25.293-10.715-0.02929-0.011719-0.0176-0.02734c-10.268-15.353-30.503-15.967-34.389-15.938zm14.418 4.4961s9.0113 1.3836 14.252 9.7422c-4.9464-1.9071-10.357-3.703-14.348-4.6855 12.519 0.25448 0.0957-5.0566 0.0957-5.0566zm17.693 18.738s5.0146 0.7144 14.594 5.416c-0.56755 0.53684-0.95037 1.2794-1.0176 2.1191-0.13607 1.7903 1.2033 3.3526 2.9902 3.4863 1.7124 0.13268 3.2139-1.087 3.4609-2.7578 7.6248 4.2308 17.336 10.579 29.01 20.102l-29.342-16.377-3.1367 2.1406s-4.954-6.4267-16.559-14.129zm16.35 6.3008c0.74519 0.38081 1.5173 0.78301 2.3125 1.2168l-3.2012 2.3516zm45.609 29.277c2.0319 2e-3 4.4746 0.64843 4.4746 0.64843-6.9104 2.7633 1.9922 10.686 1.9922 10.686-12.1-9.5517-9.8533-11.338-6.4668-11.334z" fill="#fff"/>
   <path transform="matrix(.75 0 0 -.75 194.98 461.01)" d="m121.01 8.1113c-4.5258 0.039778-9.1051 0.67398-13.703 1.9102-5.9585 1.6025-19.425 8.2148-24.469 10.83-13.261 6.8745-21.838-2.0187-25.066-5.3672l-0.14648-0.15039c0.30511 1.8285 0.91239 5.1391 2.3828 8.5234 1.8353 4.2252 4.49 7.3305 7.8926 9.2324 6.0889 3.4031 14.561 2.9233 25.182-1.4316 11.825-4.8457 21.744-6.3318 29.482-4.4082 6.9741 1.7334 13.389 7.2907 17.176 14.871 12.815-0.51576 25.663 0.39606 38.191 2.709-6.422-9.9378-14.172-18.45-22.43-24.627-6.747-5.0477-13.849-8.5599-21.109-10.441-4.3848-1.1357-8.857-1.6902-13.383-1.6504zm-84.076 7.5508c-4.6697 14.565-2.432 26.112 4.3418 33.859 5.3728 6.1458 14.526 10.215 24.49 10.891 19.891-9.1197 40.351-14.927 60.811-17.266-5.5675-9.4749-21.875-10.626-45.973-3.2285-15.51 4.7614-26.506 4.7089-33.619-0.16406-6.0627-4.1528-9.7172-11.528-10.051-24.092zm1.1777 43.283c-2.5243 0.05851-5.4934 0.8685-9.3672 2.8535-12.25 6.2762-19.533-0.66211-19.533-0.66211s5.6008 28.913 47.162 5.0312c-8.27-2.6121-11.811-7.3722-18.262-7.2227zm192.34 15.74c-0.56755 0.53684-0.95039 1.2794-1.0176 2.1191-0.13607 1.7903 1.2033 3.3526 2.9902 3.4863 1.7124 0.13267 3.2139-1.087 3.4609-2.7578-0.46111-0.25501-0.91492-0.50701-1.3652-0.74609l-3.2012 2.3516 0.88867-3.5684c-0.60001-0.31083-1.1866-0.6064-1.7559-0.88476z" fill="#fc4c02"/>
  </g>
 </g>
</svg>
