<svg xmlns="http://www.w3.org/2000/svg" height="114.26" viewBox="0 0 172.88213 114.26353" width="172.88"><g transform="matrix(1.25 0 0 -1.25 -294.83 549.09)"><g><path d="m304.47 438.5c-36.88-0.003-68.038-20.673-68.038-45.138 0-25.468 29.252-44.672 68.038-44.672 22.637 0 44.099 7.9562 57.413 21.281 7.3285 7.3333 11.359 15.643 11.351 23.391-0.01 12.063-7.106 23.393-19.981 31.906-12.909 8.5342-30.232 13.232-48.783 13.232" fill="#ffb612"/><path d="m256.89 363.45c-11.833 7.8921-18.351 18.519-18.351 29.915 0 22.921 30.81 43.028 65.931 43.031 36.735 0.002 66.636-19.302 66.658-43.031 0.006-7.1892-3.806-14.966-10.736-21.902-12.926-12.937-33.831-20.663-55.922-20.663-18.457 0-35.355 4.4945-47.58 12.651" fill="#203731"/><path d="m333.99 405.19c-5.2966 7.8889-16.894 13.36-30.55 13.36-18.743 0-33.941-10.31-33.941-23.026 0-12.715 10.728-23.88 33.941-23.867 13.94 0.006 25.148 6.0268 30.384 13.935l-39.595-0.0688-0.1217 10.286 68.732 0.024c0.0929-0.82461 0.18895-1.6284 0.18895-2.4642 0-19.798-26.216-35.847-58.553-35.847-32.335 0-58.55 16.048-58.55 35.847 0 19.798 27.771 36.454 58.55 36.574 25.619 0.0977 47.396-10.488 55.338-24.736l-25.822-0.016" fill="#fff"/></g></g></svg>
