<?xml version="1.0" encoding="UTF-8" standalone="no"?><svg xmlns:rdf="http://www.w3.org/1999/02/22-rdf-syntax-ns#" xmlns="http://www.w3.org/2000/svg" height="213.79673" width="297.82652" version="1.1" xmlns:cc="http://creativecommons.org/ns#" xmlns:dc="http://purl.org/dc/elements/1.1/" viewBox="0 0 297.82652 213.79673"><defs><style>.cls-1{fill:#003594;}.cls-2{fill:url(#linear-gradient);}.cls-3{fill:#d7d2cb;}.cls-4{fill:#ffd100;}.cls-5{fill:#ffa300;}.cls-6{fill:#ff8200;}.cls-7{fill:url(#linear-gradient-2);}.cls-8{fill:#fff;}</style><linearGradient id="linear-gradient" x1="-236.22192" y1="444.50504" x2="-236.22192" y2="443.8575" gradientTransform="matrix(276.77249, 0, 0, -228.62732, 65581.19655, 101632.75685)" gradientUnits="userSpaceOnUse"><stop offset="0.217" stop-color="#ffd100"/><stop offset="0.296" stop-color="#ffd724"/><stop offset="0.474" stop-color="#ffe87f"/><stop offset="0.707" stop-color="#fff"/></linearGradient><linearGradient id="linear-gradient-2" x1="-236.42153" y1="444.37339" x2="-235.77399" y2="444.37339" gradientTransform="matrix(266.10144, 0, 0, -265.8454, 62974.33182, 118244.22115)" gradientUnits="userSpaceOnUse"><stop offset="0" stop-color="#ffa300"/><stop offset="0.134" stop-color="#ffa800"/><stop offset="0.289" stop-color="#ffb600"/><stop offset="0.453" stop-color="#ffcd00"/><stop offset="0.478" stop-color="#ffd100"/></linearGradient></defs><title>Los Angeles Rams logo</title><path class="cls-1" d="M261.50991,36.3137a123.92508,123.92508,0,0,0-153.233-17.53047h0A128.87,128.87,0,0,0,73.83812,52.42017c-.0325.03913-.06633.07694-.09949.11607H48.18609L0,161.56133H62.51438A99.66247,99.66247,0,0,0,101.974,201.58872a98.52641,98.52641,0,0,0,101.35985-3.81436,9.58535,9.58535,0,0,0-5.13159-17.60411,9.75906,9.75906,0,0,0-2.81486.41852,66.56,66.56,0,0,1-19.20851,2.81219,65.684,65.684,0,0,1-49.06556-21.83963H185.491l10.02575-13.96946,38.91313.004s-1.18457,3.01116-1.83456,4.48492l-4.1785,9.48453h63.68767l1.3557-4.98369A123.97549,123.97549,0,0,0,261.50991,36.3137Zm25.42852,118.49238H238.7782a97.48793,97.48793,0,0,0,4.93129-13.97211H191.99556l-9.97269,13.97211H135.66536l69.30875-97.0938-.00794-.00332a75.00432,75.00432,0,0,0-28.78525-5.57134q-1.88962,0-3.75337.09618c-37.59988,1.89425-67.58561,32.08028-67.58561,68.91213a67.30525,67.30525,0,0,0,.38137,7.16314H146.166l-12.19195,17.15442c-3.84687,5.17337-8.94663,9.338-16.72063,9.338h-3.33751a71.80818,71.80818,0,0,0,62.26764,35.35146,73.28923,73.28923,0,0,0,21.15783-3.09873,2.99475,2.99475,0,0,1,.86223-.13265,2.82877,2.82877,0,0,1,1.43328,5.19261,91.75988,91.75988,0,0,1-132.97121-37.308H10.37462L52.58745,59.29746H76.978a91.7088,91.7088,0,0,1,70.5225-35.74941c.66326-.01393,1.33381-.02123,1.99639-.02123,39.03718,0,71.77939,23.35849,85.03584,57.72038l-24.00183,33.627h36.54531A98.1013,98.1013,0,0,0,111.85652,24.51507a117.20766,117.20766,0,0,1,175.08191,130.291ZM151.0973,121.55117H111.60714c0-.13265-.01-.26861-.01-.40392,0-33.13088,26.86777-60.43706,61.17328-62.16484,1.14213-.05837,2.28889-.08759,3.4078-.08759a69.98649,69.98649,0,0,1,17.98347,2.33005ZM236.72344,89.91a90.79876,90.79876,0,0,1,3.30964,18.19837H223.7389Z"/><path class="cls-2" d="M111.85652,24.51507a98.0993,98.0993,0,0,1,126.92168,130.291h48.16023a117.19705,117.19705,0,0,0-175.08191-130.291"/><path class="cls-3" d="M234.52209,81.26046l-9.2703,12.9905A47.14343,47.14343,0,0,0,191.4079,79.97773q-1.19385,0-2.36847.05969l15.934-22.32514A67.7454,67.7454,0,0,1,234.52209,81.26046Zm9.1874,59.57417a98.08014,98.08014,0,0,0,3.36671-25.54988v-.41587H237.0544a47.38037,47.38037,0,0,1-.33161,25.96509Z"/><path class="cls-4" d="M199.6336,192.1201a91.77052,91.77052,0,0,1-94.39569,3.55241h0A88.58621,88.58621,0,0,1,89.3198,164.46108c10.25856-.47755,25.11479.40922,36.0963,5.129a72.33455,72.33455,0,0,0,50.76549,20.56884,73.28907,73.28907,0,0,0,21.1578-3.09873,2.99807,2.99807,0,0,1,.86223-.13266,2.82879,2.82879,0,0,1,1.432,5.19262ZM105.21933,128.315a67.13187,67.13187,0,0,1-.382-7.16315c0-36.83516,29.98838-67.02119,67.58893-68.91213C128.83384,54.01331,93.13417,86.50415,87.04152,128.319Z"/><path class="cls-5" d="M113.91129,154.80608h-26.7a87.133,87.133,0,0,0,2.10583,9.65632h0c10.25855-.47754,25.11479.40923,36.09629,5.129A69.67873,69.67873,0,0,1,113.91129,154.80608Z"/><path class="cls-6" d="M66.66569,154.80608a91.85007,91.85007,0,0,0,12.47913,19.38229,30.60647,30.60647,0,0,1,10.17233-9.726,87.133,87.133,0,0,1-2.10583-9.65632Z"/><path class="cls-7" d="M204.96617,57.709a75.00432,75.00432,0,0,0-28.78525-5.57134q-1.88962,0-3.75337.09618c-43.59172,1.77354-79.29138,34.26438-85.384,76.07925h-24.821L92.79592,59.29746H76.978a91.7088,91.7088,0,0,1,70.5225-35.74941c.66326-.01393,1.33381-.02123,1.99639-.02123,39.03718,0,71.78,23.35849,85.03651,57.72038l-.01061.01525A67.74161,67.74161,0,0,0,204.96617,57.709ZM89.31715,164.46041h0a30.60644,30.60644,0,0,0-10.17233,9.726,92.19222,92.19222,0,0,0,26.09176,21.48547,88.59678,88.59678,0,0,1-15.91811-31.21143Z"/><path class="cls-8" d="M238.70524,127.27174a47.37251,47.37251,0,0,1-1.9818,13.56289H191.99556l-9.97269,13.97145H135.66536l53.37407-74.77q1.17726-.0577,2.36847-.05972a47.14362,47.14362,0,0,1,33.84389,14.27326l-14.72092,20.62191h26.52221a47.35815,47.35815,0,0,1,1.65216,12.4002ZM52.58745,59.29746,10.37462,154.80608H117.24878c7.774,0,12.87642-4.16191,16.72064-9.33862l12.19195-17.15375H62.22254L92.79592,59.29746Z"/></svg>