<svg xmlns="http://www.w3.org/2000/svg" width="296" height="176.57" viewBox="0 0 298 178.57">
 <g transform="matrix(1.3333 0 0 -1.3333 -260 616.15)">
  <g transform="matrix(.36274 0 0 .36274 195.91 251.38)">
   <path d="m610.37 414.62-0.1971 0.8229c-11.577 39.361-58.537 83.127-128.84 120.08-60.318 31.7-131.41 42.913-174.33 42.913-0.2536 0-0.5128 0-0.7636-1e-3h-0.5059c-0.2399 0-0.4742 1e-3 -0.7168 1e-3 -42.939 0-114.05-11.219-174.36-42.913-70.303-36.95-117.26-80.716-128.84-120.08l-0.19573-0.8201c-1.1385-6.1103-1.6844-12.411-1.6251-18.727-0.05927-6.313 0.48657-12.612 1.6251-18.725l0.19573-0.8201c11.576-39.361 58.536-83.127 128.84-120.08 60.318-31.7 131.43-42.913 174.35-42.913 0.2482 0 0.499 0 0.7457 1e-3h0.5045c0.2357 0 0.4714-1e-3 0.7085-1e-3 42.941 0 114.06 11.216 174.37 42.913 70.303 36.949 117.26 80.715 128.84 120.08l0.1971 0.8228c1.1344 6.1104 1.6816 12.41 1.6224 18.723 0.0592 6.3157-0.488 12.616-1.6224 18.724z" fill="#fff"/>
   <path transform="matrix(.75 0 0 -.75 0 792)" d="m406.71 306.8c-54.751 0-145.37 14.292-222.23 54.688-86.849 45.646-146.86 100.28-160.72 146.27-1.1946 6.6071-1.7612 13.419-1.6914 20.258v0.23047c-0.06984 6.8368 0.49682 13.649 1.6914 20.26 13.863 45.992 73.878 100.62 160.72 146.27 77.309 40.629 168.5 54.867 223.16 54.684h0.74024c0.296 1e-3 0.60287 2e-3 0.90234 2e-3 54.753 0 145.38-14.292 222.24-54.688 86.843-45.641 146.86-100.27 160.73-146.26 1.1909-6.6107 1.7593-13.425 1.6894-20.266v-0.22266c0.0699-6.8405-0.49852-13.655-1.6894-20.264-13.868-45.99-73.885-100.62-160.73-146.27-76.858-40.396-167.46-54.688-222.19-54.688-0.32533 0-0.64919 6.2e-4 -0.97265 2e-3h-0.74024c-0.30333 0-0.60899-2e-3 -0.91406-2e-3zm80.66 104.44c8.8197 0 15.267 0.96684 19.342 2.8984 3.7787 1.8065 5.6699 4.558 5.6699 8.252 0 2.7311-0.92451 5.9648-2.7734 9.7012-2.7291 5.5447-5.4805 9.7032-8.252 12.475-4.9989 4.9989-13.695 7.4961-26.082 7.4961-8.8199 0-15.245-0.96489-19.275-2.8965-3.8228-1.8065-5.7324-4.558-5.7324-8.252 0-2.7311 0.92264-5.965 2.7734-9.7031 2.7273-5.5429 5.4786-9.7031 8.252-12.475 4.9971-4.9971 13.689-7.4961 26.078-7.4961zm-292.8 1.0098h21.293l3.6543 16.629 8.5684-16.629h18.9l-20.666 38.805h-20.283l-3.9062-18.018-9.3223 18.018h-18.9zm61.475 0h46.178l-5.2305 9.8262h-23.625l-2.6445 4.7246h21.984l-5.0391 9.5137h-21.922l-2.7109 4.9121h24.443l-5.2285 9.8281h-46.869zm50.406 0h22.363l-4.5977 18.08 13.355-18.08h22.049l-5.166 18.205 13.986-18.205h21.104l-34.648 38.805h-23.309l3.5898-15.057-12.725 15.057h-23.311zm99.016 0h23.623l-0.3125 12.031 11.906-12.031h21.734l-31.059 26.773-6.4258 12.031h-24.568l6.8047-12.725zm120.34 0h35.908c4.8299 0 8.1688 0.92455 10.018 2.7715 1.3435 1.3453 2.0156 3.253 2.0156 5.7305 0 3.7804-1.3443 7.0163-4.0312 9.7031-1.428 1.428-2.9197 2.4997-4.4726 3.2129-1.3857 0.58986-3.3397 1.0926-5.8574 1.5117 3.694 1.1761 5.543 2.9607 5.543 5.3555 0 1.3433-0.48256 2.8959-1.4492 4.6602l-3.2129 5.8594h-23.438l4.0352-7.5605c0.54587-1.0071 0.81836-1.8875 0.81836-2.6445 0-1.6376-1.0717-2.457-3.2129-2.457h-3.3379l-6.6777 12.662h-23.311zm62.379 0h23.939l-9.3848 17.574 19.34-17.574h21.732l-21.482 18.961 2.457 19.844h-23.057l-1.1348-17.197-9.1328 17.197h-23.938zm-102.01 8.8184c-1.4703 0-2.6747 0.39732-3.6211 1.1894-0.9428 0.79387-1.8801 2.0671-2.8027 3.8203l-5.293 9.8965c-0.75533 1.4188-1.1328 2.6292-1.1328 3.6309 0 1.7533 1.0496 2.6289 3.1484 2.6289 1.4684 0 2.7079-0.4156 3.7168-1.25 0.88226-0.7536 1.7865-2.0064 2.7109-3.7598l5.293-9.8926c0.75534-1.4207 1.1309-2.6312 1.1309-3.6328 0-1.7532-1.0497-2.6308-3.1504-2.6308zm57.395 1.0078-4.9766 9.0723h4.4746c2.0161 0 3.6108-1.0921 4.7852-3.2773l0.94531-1.7637c0.42093-0.7976 0.63086-1.5122 0.63086-2.1426 0-1.2589-0.79725-1.8887-2.3926-1.8887zm99.398 59.098c43.141 0 58.893 6.8546 58.893 23.281 0 5.6495-0.86181 9.9306-3.0801 14.896h-51.885c1.373-2.5711 2.2383-4.7928 2.2383-7.873 0-3.7675-4.2868-6.5117-11.816-6.5117-9.4152 0-14.213 3.944-14.213 8.2188 0 3.7676 4.2853 5.1338 26.705 10.445 22.438 5.3076 30.471 10.271 30.471 22.434 0 9.9263-4.447 20.024-13.004 28.588-10.783 10.777-26.883 17.467-66.77 17.467-47.249 0-60.943-7.7061-60.943-23.975 0-4.7931 1.0312-9.7595 3.7715-15.236h52.889c-1.5328 3.0821-2.2188 5.6485-2.2188 8.7305 0 4.1039 3.9332 6.6738 12.146 6.6738 9.0789 0 14.385-3.2544 14.385-8.8965 0-5.1405-4.6236-6.3349-28.418-12.328-22.26-5.6477-28.59-9.9278-28.59-21.916 0-8.046 4.4492-17.98 12.668-26.191 11.641-11.641 27.736-17.807 66.771-17.807zm-417.64 2.7402h65.057l-29.473 56.33c-8.3879 15.747-13.698 24.644-22.086 33.035-12.492 12.497-33.208 18.84-64.025 18.84-42.805 0-60.607-10.279-60.607-29.453 0-9.7571 2.4042-16.777 8.2246-27.395l6.7441-12.822h55.471l-13.775 26.357c-1.7055 3.2475-3.0762 7.0107-3.0762 9.5781 0 3.7657 1.8844 6.502 6.6738 6.502 7.1877 1e-5 10.787-4.7945 15.582-13.691zm75.766 0h125.49l-14.217 26.707h-64.207l-7.1836 12.838h64.857l-13.697 25.854h-64.684l-7.3652 13.354h66.422l-0.31054 0.58399c-10.83 1.904-24.316 5.5478-37.518 12.504-8.1452 4.2915-15.351 8.885-21.51 13.621h-82.232zm136.42 0h134.9l-14.377 26.881h-32.359l-40.459 75.793c-5.3427-3.7952-11.35-7.4781-17.99-10.961-12.749-6.6824-25.776-10.276-36.406-12.213l28.086-52.619h-35.779zm-29.793 83.699h0.60937c11.836 0 35.157 2.8329 55.91 13.713 22.933 12.019 37.524 26.012 40.982 37.727 0.0717 0.38973 0.12831 0.76773 0.18164 1.1445l-2.7617 3.3184c-15.26-1.0623-30.52-1.6581-45.779-2.0586-4.7269-0.15627-9.4524-0.23921-14.176-0.31641-0.20586-2.4719-0.56602-4.9402-1.1211-7.4121-0.52013-0.43373-1.0406-0.87126-1.5606-1.3086v-2e-3c-1.5089-0.0588-3.0164-0.11438-4.5254-0.16211-0.3344 0.41346-0.67627 0.82889-1.0273 1.2461 1.3803 7.9853 1.3803 15.968 0 23.955 0.35107 0.41533 0.69294 0.82872 1.0273 1.2422 1.5089-0.0496 3.0165-0.1033 4.5254-0.1621 0.52-0.43747 1.0404-0.87486 1.5606-1.3086 0.55507-2.4719 0.91523-4.9402 1.1211-7.4121 4.7233-0.0753 9.4488-0.16014 14.176-0.3164 15.259-0.40054 30.52-0.99633 45.779-2.0586l2.5801 3.0996c-3.4588 11.713-18.05 25.707-40.982 37.729-20.755 10.88-44.074 13.715-55.91 13.715-0.10106 0-0.20353-2e-3 -0.30273-2e-3h-0.30664c-11.788 0-35.218-2.8582-56.039-13.83-22.782-12.003-37.3-25.94-40.832-37.623l2.5664-3.0859c15.247 1.0623 30.494 1.6598 45.742 2.0586 5.2764 0.17467 10.556 0.25913 15.834 0.3418 0.20574 2.4627 0.56594 4.924 1.1191 7.3867 0.51827 0.43373 1.0385 0.87112 1.5586 1.3086 1.5088 0.0588 3.0164 0.11056 4.5254 0.16015 0.33453-0.41346 0.67619-0.82685 1.0254-1.2422-1.3801-7.9872-1.3801-15.97 0-23.955-0.3492-0.4172-0.69086-0.83067-1.0254-1.2441-1.5089 0.0477-3.0166 0.10331-4.5254 0.16211-0.52014 0.43733-1.0403 0.87486-1.5586 1.3086-0.5532 2.4627-0.9134 4.9238-1.1191 7.3828-5.2783 0.0827-10.558 0.16909-15.834 0.34375-15.249 0.3988-30.496 0.99633-45.742 2.0586l-2.7793-3.3398c0.0459-0.3032 0.0875-0.60348 0.14453-0.91601 3.4349-11.722 17.995-25.745 40.9-37.816 20.823-10.97 44.251-13.828 56.039-13.828zm-1.1465 44.209c-0.4264 0.44107-0.85728 0.88315-1.291 1.3242-0.19294 8.2207-0.19294 16.443 0 24.662 0.43373 0.4448 0.86461 0.88511 1.291 1.3262 1.5088 5e-3 3.0186 5e-3 4.5274 0 0.42826-0.44106 0.85728-0.88137 1.291-1.3262 0.1912-8.2188 0.1912-16.441 0-24.662-0.43373-0.44107-0.86275-0.88315-1.291-1.3242-1.5088-4e-3 -3.0186-4e-3 -4.5274 0zm-9.9258 0.0879c-1.5089 0.022-3.0184 0.0489-4.5273 0.0801-0.47414 0.4448-0.94792 0.8891-1.4258 1.332-0.97587 8.1048-0.97587 16.21 0 24.316 0.47786 0.44106 0.95164 0.88332 1.4258 1.3281 1.5089 0.0312 3.0184 0.0581 4.5273 0.0801 0.3804-0.43187 0.76869-0.86314 1.1602-1.2969-0.59547-8.1803-0.59547-16.363 0-24.543-0.39147-0.43374-0.77976-0.86501-1.1602-1.2969zm24.379 0c-0.38054 0.43187-0.76682 0.86314-1.1602 1.2969 0.59547 8.1803 0.59547 16.363 0 24.543 0.39334 0.43373 0.77962 0.865 1.1602 1.2969 1.5088-0.022 3.0185-0.0489 4.5273-0.0801 0.47227-0.4448 0.94792-0.88706 1.4258-1.3281 0.97587-8.1067 0.97587-16.212 0-24.316-0.47786-0.44293-0.95351-0.88723-1.4258-1.332-1.5088-0.0312-3.0185-0.0581-4.5273-0.0801zm-110.27 18.291 0.0508 0.21875c-7e-3 -0.0276-0.02-0.0526-0.0293-0.0801-7e-3 -0.0479-0.0135-0.0928-0.0215-0.13867z" fill="#115740"/>
  </g>
 </g>
</svg>
