<svg xmlns="http://www.w3.org/2000/svg" width="296" height="203.79" viewBox="0 0 298 205.79">
 <g transform="matrix(1.3333 0 0 -1.3333 -258.54 628.65)">
  <g>
   <path d="m324.15 459.27-10.822-11.342c17.726 7.3654 56.38 20.01 56.38 20.01l-12.385-12.115c33.805 10.009 59.494 14.751 59.494 14.751s-7.444-17.324-18.565-34.672c2.1512 0.23215 16.193 1.8685 16.193 1.8685s-12.645-20.947-27.247-36.044l8.1723-2.0333s-12.733-18.35-29.538-33.328c-24.167-21.536-36.602-18.228-36.602-18.228-17.94-12.993-32.318-6.4087-32.318-6.4087s6.2121 15.678-0.20594 17.342c-5.7852 1.5034-14.587-3.0199-15.686-4.8341-1.1421-3.956-5.9518-14.002-10.921-20.083-9.5278-11.657-20.093-16.421-20.093-16.421s-8.3221 7.1014-8.3764 19.19c0 0-5.7159-6.0548-15.021-8.0338-6.5135-1.3854-15.403-0.26022-24.509 7.3429-6.1147 5.1037-7.283 22.255-7.283 22.255s5.7459 10.977 16.828 20.596c-2.4526 2.1044-3.956 4.7517-4.4278 6.3862 29.456 12.857 29.476 25.129 52.894 40.049 23.072 14.699 37.57 21.458 64.038 33.751" fill="#fff"/>
   <path d="m309.8 448.86-9.2545-9.7c18.277 8.0899 56.873 21.229 56.873 21.229l-11.202-10.958c39.573 12.252 64.673 16.403 64.673 16.403s-8.2023-18.28-19.117-33.809c5.2853 0.50737 16.309 1.788 16.309 1.788s-11.024-18.47-27.316-34.114c1.8105-0.26586 9.2039-1.9527 9.2039-1.9527s-9.8255-14.579-26.902-29.533c-21.798-19.086-31.468-16.826-31.468-16.826s0.20969 0.74516 0.18908 1.9041c-0.015 0.64032-0.15166 1.2207-0.15727 1.2675-16.781-15.792-30.761-10.464-30.761-10.464s6.2065 15.027-3.3138 18.06c-7.3747 2.3478-18.672-3.6883-19.572-6.9217-0.97921-3.516-5.6635-13.274-10.309-18.992-8.0581-9.921-16.977-14.448-16.977-14.448s-8.1087 6.2383-5.2966 24.496c0.61411 3.9785-0.17412 5.5325-0.60847 6.2008-1.3312 2.037-11.705-0.18537-14.236-5.9724-1.7861-4.0871 8.5224-7.5413 8.5224-7.5413s-4.7573-5.2479-13.072-6.9478c-5.2292-1.0691-13.327-0.72831-21.828 6.6333-5.0307 4.3548-6.0735 19.091-6.0735 19.091s6.2139 11.383 18.318 21.214c-2.389 1.5633-4.2032 4.2126-4.6619 5.2535 24.39 10.505 27.733 25.359 55.266 41.959 12.832 7.7361 26.348 15.349 42.773 22.68" fill="#004851"/>
   <path transform="matrix(.75 0 0 -.75 193.91 471.48)" d="m277.44 16.199s-29.305 6.1679-43.332 9.166c-26.339 5.6267-47.244 12.785-47.244 12.785l12.609-12.213s-40.434 12.762-64.299 24.475c-2.6436 1.2956-8.7051 3.8867-8.7051 3.8867l7.2383-9.1113s-19.184 8.1885-44.244 24.861c-22.741 15.13-33.219 35.491-59.932 47.74 0 0 1.7263 2.8756 7.2656 5-5.2248 3.7494-17.838 13.836-27.406 29.697 0 0 1.815 17.625 6.6953 21.799 19.896 17.017 37.094 3.2871 37.094 3.2871s-11.91-5.2766-8.5078-12.793c4.2188-9.3337 17.594-10.947 21.119-10.785 0 0 8.8385-0.43276 6.502 13.539-3.1678 18.952 4.2188 27.365 4.2188 27.365s23.111-13.243 32.215-41.389c3.5074-10.839 49.238-25.883 38.459 13.604 8.8769 2.0545 30.258-5.801 37.26-18.6 1.4628 1.8348 2.6731 4.4948 2.8828 7.6152 18.66-1.4628 52.048-37.04 63.219-55.158-2.9756-1.2332-8.3161-2.1992-9.6191-2.4687 23.121-22.06 33.359-42.656 33.359-42.656s-9.523 0.51902-18.357 1.1406c14.626-20.547 21.51-40.787 21.51-40.787zm-191.97 92.156c1.8023 0.20217 3.3593 1.0443 4.2305 2.4922 1.72 2.8682 0.11754 6.9774-3.582 9.1816-3.6995 2.2092-8.0901 1.6738-9.8125-1.1895-0.21469-0.35948-0.37739-0.74618-0.49219-1.1406 0.54923-0.30705 1.0815-0.64534 1.5957-1.0098 0.074893 0.34696 0.18779 0.68461 0.375 0.99414 1.2183 2.0295 4.397 2.3612 7.1055 0.7461 2.709-1.6176 3.9169-4.5687 2.7012-6.5957-0.68649-1.1458-2.0081-1.7325-3.5059-1.75 0.50675-0.62406 0.97039-1.2118 1.3848-1.7285z"/>
   <path transform="matrix(.75 0 0 -.75 193.91 471.48)" d="m183.96 35.467s-24.571 5.8839-57.852 21.686c-9.3836 4.4534-14.34 7.1055-14.34 7.1055 1.4404-1.6651 8.1154-7.5216 9.7305-9.6035-24.698 12.112-33.715 20.125-48.391 35.682-13.091 13.882-12.497 16.302-32.365 27.041 0 0 14.637 6.0073 29.463-3.6484 2.5662-1.6675 4.9847-4.0101 7.2812-6.459 5.2447-6.0835 3.5085-12.325 10.471-16.809-0.99355 2.3141-2.6281 5.2493-2.7754 8.2773 3.345-4.6082 9.9559-10.674 17.312-15.062 18.707-11.154 31.121-13.076 31.121-13.076-0.47928 0.16727-0.94141 0.33807-1.4082 0.50781-25.567 10.629-29.741 24.521-29.871 25.979-0.27705 3.1329 9.2419-3.8834 17.025-4.832-8.1879 2.8908-15.215 9.852-18.617 17.893-1.4429 3.405-1.8823 7.2853-5.9238 10.318-1.1408 1.0385-2.6369 2.0618-4.6289 2.9629-5.3745 2.4289-9.0915 1.2026-10.35 0.36133-0.75635-0.5018-1.2227-1.3535-1.2227-1.3535 2.6037 0.7339 6.1428 0.09621 9.373-1.9434 2.3864-1.5053 4.1597-3.4947 5.1133-5.5117 0.002667 0 0.005146-7.1e-4 0.007812 0.00195 0.51923-1.0759 1.4929-3.1775 0.0625-5.8535-0.72639-1.3655-2.2351-2.1015-3.9551-2.3711 0.10733-0.28705 1.0047-2.5647 3.8105-5.9297-3.8119 2.7409-6.2814 6.037-7.5645 7.5274 1.8023 0.20216 3.3612 1.0463 4.2324 2.4941 1.72 2.8682 0.11555 6.9755-3.584 9.1797-3.6995 2.2092-8.0901 1.6738-9.8125-1.1895-0.21469-0.35949-0.37735-0.74619-0.49219-1.1406-0.19721 0.11227-0.38821 0.22966-0.58789 0.33203-1.1583 0.59912-3.4922 1.5898-3.4922 1.5898 1.1058 0.25711 2.5847 0.37005 3.5059 0.19532 0.30453 4.0515 2.8396 10.564 17.104 6.8848-4.074 4.0091-13.889 3.7443-19.838 0.62891 0.80881 0.60412 1.7426 1.2466 2.8535 1.9355 17.889 11.114 38.488 0.65158 43.518-2.2441 1.2282-0.78633 2.4689-1.4962 3.7246-2.1152 0 0-5.2118 4.5966-8.7441 11.729 6.2682-8.0156 24.476-20.867 48.895-17.898 0 0-12.777-6.2058-32.922 0.37695 0 0 27.789-16.476 62.965-9.4688-22.824-7.6662-43.372-4.0229-55.504 0.05859-7.117 2.746-11.346 5.0176-11.346 5.0176s1.7827-1.3042 5.1152-3.2812c8.2403-6.061 19.548-12.622 30.736-17.23 7.766-3.1978 23.242-7.3334 29.535-7.6953 0 0-16.187-2.7396-30.953 0.98242 0 0 23.378-9.1227 46.062-9.627 7.5963-0.16973 24.979 0.75195 24.979 0.75195-25.07-7.4415-51.054-8.907-68.811-6.1836-10.09 2.5013-18.051 4.9961-18.051 4.9961s1.395-0.7065 4.0586-1.8398c6.4006-3.7994 32.657-17.909 81.473-25.525 0 0-6.2418-0.74219-13.873-0.74219-7.8009 0-23.145 2.6367-23.145 2.6367 11.114-5.0775 32.056-9.9998 57.955-12.496 0 0-39.573-4.695-87.482 10.32-0.41191 0.17475-0.63477 0.27344-0.63477 0.27344s5.0532-3.6584 10.76-7.4453c4.2063-2.7909 10.293-7.1484 10.293-7.1484zm-103.58 78.723c-0.63407 0.61412-1.2999 1.2104-2.0039 1.7695 0.1048 0.29959 0.359 0.81848 0.95312 1.2578 1.046 0.77138 2.6543 0.63867 2.6543 0.63867-1.4104-1.0659-1.6734-2.5202-1.6035-3.666z" fill="#fff"/>
   <path transform="matrix(.75 0 0 -.75 193.91 471.48)" d="m256.75 30.338s-22.033 1.7774-47.041 6.418c-26.007 4.8279-42.813 11.611-46.166 13.031 47.909-15.015 87.482-10.32 87.482-10.32-25.899 2.4963-46.842 7.4186-57.955 12.496 0 0 15.344-2.6367 23.145-2.6367 7.6312 0 13.873 0.74219 13.873 0.74219-48.815 7.6163-75.072 21.726-81.473 25.525 6.4854-2.7484 20.529-8.0491 40.637-12.033 18.967-3.7569 41.005-4.6905 49.879-5.5742 12.651-12.222 17.619-27.648 17.619-27.648zm-45.887 36.111c-9.7479 0.082225-19.981 0.62473-29.125 2.0312-6.3107 0.96856-13.1 2.4668-19.131 3.957 17.756-2.7234 43.74-1.2579 68.811 6.1836 0 0-17.382-0.92169-24.979-0.75195-22.684 0.50428-46.062 9.627-46.062 9.627 14.766-3.722 30.953-0.98242 30.953-0.98242-6.2932 0.36196-21.769 4.4975-29.535 7.6953-11.188 4.6082-22.496 11.169-30.736 17.23 13.191-7.8209 50.701-26.203 98.303-16.061 0 0 3.1098-2.3934 11.393-11.482 8.7845-9.6333 10.654-15.578 10.654-15.578s-19.099-2.05-40.545-1.8691zm-78.654 4.6582c-0.26212 0.0924-0.88755 0.31594-0.9375 0.33594-23.43 8.7421-35.75 22.632-33.928 29.664 0.68649 2.6411 5.2715-0.08594 5.2715-0.08594s-6.1998 5.2494-8.6836 10.916c-0.015067 0.312-1.13e-4 1.4473-0.81641 3.0449 0.60408 0.1398 1.2325 0.22929 1.7617 0.17188 1.6051-0.17475 3.4844-1.3086 3.4844-1.3086s0.038178 3.3664-3.5391 6.6191c4.0415-3.033 4.4809-6.9134 5.9238-10.318 3.4025-8.0406 10.429-15.002 18.617-17.893-7.7835 0.94861-17.302 7.9649-17.025 4.832 0.12987-1.4578 4.3039-15.349 29.871-25.979zm53.021 29.045c-19.544 0.06615-37.096 5.3621-47.941 9.5508 12.132-4.0815 32.68-7.7247 55.504-0.05859-35.176-7.0072-62.965 9.4688-62.965 9.4688 20.145-6.5828 32.922-0.37695 32.922-0.37695-24.419-2.9681-42.628 9.8828-48.896 17.898-0.48175 0.98102-0.93542 2.0058-1.3398 3.0742 5.6542-5.3271 11.7-9.6481 25.645-13.105 33.034-8.1954 55.99 1.7387 58.748 12.176 0 0 0.11195-0.05511 0.32422-0.16992 1.338-0.72644 6.4712-2.9144 14.197-10.516 8.113-7.9857 13.198-14.392 15.207-18.703-13.727-6.8808-28.032-9.2835-41.404-9.2383zm-122.78 24.496c-5.367 1.6426-12.173 1.1728-15.93 0.15429-4.3311 2.9856-19.927 9.6604-29.848 26.453 0.51175 5.6916 1.1024 12.977 3.4414 16.971 9.5384 15.065 26.201 9.4961 26.201 9.4961s-25.316-11.234 1.7441-27.609c8.6397-5.2273 32.539-9.1516 46.793-4.5684 1.2157 0.4468 2.7196 1.515 2.6172 1.7871-1.4778 7.2568-7.4625 27.577-17.383 33.354-5.4844-8.0082 8.9897-26.398-5.7734-27.1 0 0 3.6725 5.6931 2.0898 13.342-0.69644 3.3575-2.983 12.321 1.1035 21.598 0 0 22.441-13.421 29.102-44.4 0.86371-3.0505 1.4479-5.637 2.7734-7.9785-28.835 11.363-46.932-11.498-46.932-11.498zm-6.8047 4.6211c1.5452 1.2656 3.1503 2.1489 7.3516 2.5508 0 0-7.5437 2.1922-9.2188 2.6914-2.0669 0.61412-6.532 1.2467-4.4102-1.9336 0 0 2.6851-1.4463 6.2773-3.3086zm92.338 2.1113c-19.501-0.23453-28.416 8.4629-28.416 8.4629s8.324-6.2638 22.453-3.9922c20.902 3.36 20.303 16.527 20.303 16.527s9.408-4.0451 14.166-12.32c0 0-5.9005-5.6328-16.572-7.5176-4.3479-0.76801-8.3223-1.1167-11.934-1.1602z" fill="#a2aaad"/>
   <path d="m230.93 372.05c-1.5914-2.3852 1.758-1.9097 3.3082-1.4491 1.2563 0.37442 6.9142 2.0183 6.9142 2.0183-3.151 0.30143-4.3548 0.96418-5.5137 1.9134-2.6942-1.3967-4.7087-2.4826-4.7087-2.4826"/>
  </g>
 </g>
</svg>
