<svg xmlns="http://www.w3.org/2000/svg" height="265.02" width="298" viewBox="0 0 300 267.02">
 <g transform="matrix(.69337 0 0 .69337 -23.292 -39.934)" fill-rule="evenodd">
  <g>
   <path d="m447.65 59.002s1.0007 18.324-2.4597 35.099c-3.3444 16.209-5.1848 22.385-5.1848 22.385-7.0782 4.1496-18.536 9.2547-35.285 12.042-31.259 5.2113-59.625-3.1852-90.592-15.342-30.976-12.157-72.419-25.251-110.87-20.836-37.284 4.2823-63.96 19.385-78.143 29.233-14.183 9.8387-16.793 12.44-28.95 15.917 0 0 9.5556 3.7603 14.475 3.7603 0 0-2.3181 9.5644-1.451 12.741 0 0 20.261-9.2636 22.579-4.9193 2.3181 4.3442-7.2374 7.2463-13.891 8.9716-6.6535 1.743-24.03 1.4422-24.03 1.4422s8.1488 6.3084 11.024 10.688c0 0-15.36 6.6889-32.445 4.3708 0 0-0.56626 6.3261 13.475 16.687-2.9905 1.0706-6.7774 2.8047-9.122 5.3086 0 0 14.714-3.0348 23.96 7.264 2.4331 3.0525 3.2294 5.7864 2.9552 9.237-0.50432 6.2554-2.9021 8.6442-8.7947 12.537-3.371 1.3714-6.9543 3.0879-10.414 5.2025-16.271 9.998-28.171 25.216-36.523 42.602-3.6187 7.5294-6.5119 16.28-8.5558 24.216-2.0438 7.9807-2.7959 15.068-3.2737 19.492-0.47778 4.415-1.1325 18.333-1.1325 18.333s7.2994-10.228 10.723-15.13c3.4064-4.884 24.995-32.029 56.44-39.894 10.06-2.557 20.076-3.6276 29.649-3.6276 23.013-0.0177 43.566 6.2288 55.732 12.183 17.66 8.5469 46.672 28.72 84.708 35.028 8.9548 1.4776 18.607 2.2119 28.614 2.2119 9.5998 0 19.536-0.69898 29.463-2.0527-5.6095 8.37-10.989 16.191-16.103 23.438-5.1848-4.937-12.219-5.4502-12.219-5.4502-8.5292-0.80514-12.802 4.3885-12.802 4.3885-1.7262 1.8669-3.018 4.2912-3.5223 7.149-0.60164 2.6455 0.11502 5.7254 0.61138 7.2905 1.6271 5.1671 6.0421 7.5206 7.7586 8.2726-12.466 16.607-16.085 35.728-16.085 35.736l-5.6891 5.0167 2.0527 8.3169c-3.1675 10.201 1.8049 17.855 8.2549 21.022 6.5473 3.2206 12.661 1.3537 12.661 1.3537 3.8488-1.0794 7.3348-3.5037 9.706-7.0605 0.36364-0.53972 0.68128-1.0883 0.9644-1.6368 1.3272-0.71667 2.4685-1.5218 3.4418-2.3889 1.7961 0.20349 6.3969 0.34506 6.3969 0.34506 9.4317-0.0796 18.651-2.7516 25.685-8.7239 5.5387-4.9547 11.635-13.404 11.847-24.951 0-2.1677 0.39815-10.909-6.8216-18.527 45.558-66.889 75.135-109.95 94.016-153.76 50.025-116.14 7.3525-164.56 7.1667-164.97z" fill="#b1babf"/>
   <path d="m451.34 78.998c-0.50521 24.225-7.141 41.098-7.141 41.098-9.4839 5.6802-22.429 11.741-37.214 13.935-30.887 4.5654-46.061-0.0531-74.666-9.2016-28.587-9.1486-71.49-28.888-115.52-28.596-44.044 0.28313-75.48 19.403-103.64 41.151 0.43354-0.13272 7.3436-2.2916 9.8387-3.1144 0 0-6.5739 7.7152-8.5735 12.006 0 0 13.104-9.7944 31.091-8.7504 0 0-6.2554 1.566-8.8654 5.4768 0 0 7.2994-1.5749 8.6 1.3006 1.3095 2.8667-3.1232 9.3874-11.201 13.033-8.078 3.6541-21.12 6.5208-29.463 7.0428 0 0 8.3523 2.6101 13.82 7.8214 0 0-6.3704 0.91132-13.298 3.6453-5.7687 2.2827-16.165 3.6541-20.598 3.1321 0 0 6.0695 5.6802 13.298 10.166 21.164 13.13 12.228 32.595 5.4148 38.974-4.4858 1.2741-51.246 13.997-61.961 89.486 0 0 23.694-33.055 59.572-42.186 35.886-9.1309 70.676 0 88.937 8.9097 18.262 8.9185 46.53 28.481 83.275 34.577 20.208 3.3533 44.54 2.7428 68.092-1.7607-0.38046 0.58395-18.35 27.313-26.074 38.09 0 0-5.7333-7.2021-13.493-7.9187 0 0-3.256-0.65474-5.8926 0.71666v9e-3c-2.327 1.0706-4.3177 3.3621-4.9636 6.5385-0.65385 3.2206 0.51316 5.7156 2.0359 7.4852 1.4501 1.6899 3.2728 2.5482 4.7504 2.9463 1.3183 0.31852 3.1498 1.1237 3.4949 2.8667-3.5391 5.4502-8.3877 13.325-11.883 20.934-2.7428 5.9899-4.0523 11.13-5.1494 14.59-1.0352 3.5479-1.9554 4.937-2.2562 5.114l-3.7249 3.2825s1.4245 5.7599 1.8315 6.7243c-0.90246 1.7165-1.3537 3.6099-1.3626 5.4768v0.10617c0 3.9107 1.9288 7.7506 5.4325 10.061 2.734 1.8837 6.6889 1.9987 6.6889 1.9987 3.9018 0 7.7329-1.9288 10.042-5.3971 0.55741-0.84054 0.98299-1.7253 1.2918-2.6101 2.8047-1.1414 4.53-2.734 5.4237-4.0434 2.0792 0.47778 8.1311 0.66358 8.3788 0.66358 8.4584-0.0619 16.474-2.4862 22.341-7.4852 4.7158-4.2204 9.8652-11.439 10.033-21.111 0-1.7253 0.52202-10.821-8.2107-18.041 7.5471-10.909 16.82-24.508 26.57-39.257 18.129-27.472 32.958-51.343 44.239-71.276 11.803-20.262 48.733-75.923 48.654-152.14-0.0354-22.208-7.9886-36.47-7.9886-36.47z"/>
   <path d="m219.99 104.13c-58.702-0.31186-87.302 30.503-87.316 30.518 9e-3 -9e-3 13.944-5.0791 20.969-0.51367 7.6356 4.9636 0.90303 17.767-1.5566 20.324-7.0605 7.3525-17.208 12.783-28.418 12.783 0 0 11.863 2.8506 15.703 6.3809 0 0-11.005 1.4423-17.004 3.5215-5.9899 2.0881-17.723 5.4766-20.324 5.4766 0 0 30.905 14.129 11.723 44.309 0 0 13.413-2.0531 24.588 3.3086 0 0-61.225-9.8817-81.938 57.697 7.8037-6.4323 32.321-23.73 70.49-23.916 46.079-0.2035 65.844 10.396 84.15 21.482 27.906 16.917 49.007 21.925 65.039 24.916 46.071 8.6 92.336-6.8931 112.38-16.236 58.192-89.159 64.888-139.52 65.879-175.48-18.801 18.925-50.308 23.561-64.588 23.473-42.487-0.25658-88.505-24.164-129.33-33.277-14.79-3.2999-28.27-4.7048-40.453-4.7695zm57.447 20.152c11.169-0.28327 22.371 3.7094 22.504 3.7559 0.17695 0.0531 20.288 6.3795 27.578 18.66 7.3259 12.343 6.3526 23.579 1.9199 31.781-4.4318 8.2107-8.697 12.837-8.582 15.58 0.10618 2.734 1.2812 4.9805 1.2812 4.9805s-5.0784 10.149-12.555 13.016c0 0-4.1306 10.68-8.5898 14.219-4.4416 3.5391-11.078 7.185-17.068 11.98-2.3624 1.8934-5.0775 3.0596-7.9707 3.6524 0.19465 0.14156 0.37957 0.28422 0.57422 0.42578 12.042-0.31852 30.056-1.7779 48.91-6.8477 33.206-8.9362 64.748-39.25 64.748-39.25-7.8913 25.818-11.414 34.349-32.002 48.93-20.598 14.572-52.848 19.021-52.848 19.021-0.36276 1.3979-2.4961 2.8672-2.4961 2.8672s3.3017 1.2203 11.406 7.3164c8.0957 6.0961 5.9008 5.796 8.4844 7.5391 2.427 1.629 3.8691 1.298 4.0352 1.252l0.0176-6e-3c0.7786 1.566 0.87695 3.8945 0.87695 3.8945 1.0785 1.0175 6.3597 6.0591 1.4492 11.279-4.9193 5.2202-10.6 0.37305-10.6 0.37305-2.0084 0.42469-3.9629-0.24024-3.9629-0.24024s-10.512 6.6191-20.951-0.59179c-8.4947-5.8572-7.9807-12.803-7.4844-15.201-2.8676 1.6457-5.9477 2.929-9.1055 3.9199-8.5213 2.672-19.394 3.7777-30.197 0.18554-7.0959-2.3889-12.971-6.5291-17.607-11.121-4.6451-4.6008-8.0779-9.6796-10.316-14.254-0.33621-0.69897-0.65437-1.3881-0.9375-2.0605-0.74321 1.7696-4.301 8.4845-15.316 8.0059-12.679-0.54856-17.076-12.166-17.076-12.166s-1.9559-0.65385-3.3008-2.1934c0 0-7.448 0.44182-8.2266-6.6894-0.76976-7.1313 6.4931-7.9618 7.9707-8.1211 0 0 1.4691-1.8054 3.0352-2.584 0 0 0.88467 1.2831 3.9902 1.4512 3.1056 0.16811 1.1769-0.92107 11.316-0.89453 10.14 0.0177 13.502 1.0449 13.502 1.0449s-0.81522-2.4609-0.25781-3.7969c0 0-23.03-23.003-30.666-47.051s-5.2998-32.967 3.9726-58.324c0 0 6.8747 43.203 27.977 70.348 12.042 15.492 25.589 27.569 35.012 35.09 0.21235 0 0.43218 0.01 0.64453 0.01-2.0084-2.2385-3.5379-4.8668-4.2988-7.875-1.8846-7.4321-4.973-14.342-6.3887-19.846-1.4156-5.5121 1.7344-16.527 1.7344-16.527-4.2292-6.7774-2.168-17.934-2.168-17.934s2.2922-1.0885 4.0352-3.2031c1.7342-2.1234 1.1312-8.3881 2.5469-17.607 1.4156-9.2193 7.4158-18.758 20.705-24.182 3.3046-1.3493 7.0231-1.9173 10.746-2.0117z" fill="#a71930"/>
   <path d="m249.18 238.35c-12.944 0.21052-24.428 6.0912-27.564 10.053-0.16988 0.215-0.33036 0.43974-0.46484 0.67774-0.0142 0.0248-0.0305 0.0751-0.0508 0.0937 1.236-1.014 2.6074-1.2109 2.6074-1.2109-2.1721 1.0051-2.0758 3.1752-1.7051 3.9785 3.164 7.7382 13.043 20.447 27.912 25.439 15.149 5.0813 30.88 0.97175 37.928-3.4707 0.82019-0.5813 1.9058-2.046 0.84766-4.043 0 0 0.82604 0.84463 1.2578 2.1992 0.18315-1.3157-0.10316-3.1784-0.83398-5.3594-2.8251-8.4062-12.24-21.525-26.758-26.396-4.3834-1.4705-8.8612-2.0311-13.176-1.9609zm-14.652 8.6348c2.5477 0.0199 5.3482 0.18375 8.3164 0.5371-0.5176 0.64854-1.0155 1.3209-1.4941 2.0137-6.4606-1.1529-12.328-1.6322-17.07-1.6738 2.4558-0.54525 6.0018-0.91006 10.248-0.87695zm38.932 10.869c6.6818 3.9169 11.655 8.1326 14.189 11.152-3.7152-2.7402-8.5456-5.7822-14.219-8.6719 0.0372-0.83169 0.0479-1.6585 0.0293-2.4805z" fill="#dc4405"/>
   <path d="m282.12 130.38c-19.495-0.24702-23.493 15.662-23.574 19.826-0.0618 3.3521 0.16083 5.6164 0.0547 6.9609 1.9819-0.81399 3.8928-1.8666 5.3535-3.2734-0.33709 0.3893-5.8409 6.6548-11.725 7.3184 0 0-1.2923 5.6704-2.8672 8.5371-1.5572 2.8755-4.6094 4.8398-4.6094 4.8398-0.29197 4.0523 1.893 9.9177 4.3262 11.139 2.4243 1.221 8.91 3.3628 11.432 6.2383 2.5128 2.8755 2.584 5.928 2 8.0957-0.1858 0.89363-0.5751 1.9548-0.88477 2.7246 0.0796 0.0177 0.15189 0.035 0.21289 0.0527 0.53087 0.18581 0.8225 0.54949 0.8125 0.74414 0 0-0.28179 0.17655-0.49414 0.50391-0.2035 0.32737-0.55895 1.1684-0.65625 1.3984-0.35391 0.87591-0.60844 1.583-0.91015 2.459-0.0177 0.0265-0.0176 0.0535-0.0176 0.0801-0.28312 0.84053 0.5664 1.1328 0.5664 1.1328 0 9e-3 0.0867 0.0352 0.0957 0.0352 0.68127 0.12387 1.4168 0.27433 2.1777 0.43359l0.0312 4e-3c0.17504 0.0223 1.0221 0.0869 1.3301-0.72852 0.32737-0.9644 0.61185-1.7622 0.97461-2.7266 0.0177-0.0531 0.0438-0.11388 0.0703-0.17578l0.0274-0.0625s0.22016-0.66435 0.31836-1.0625c0.0876-0.3716 0.47901-1.0078 0.83203-1.0078 0.37161 0 0.87536 0.17764 0.82226 0.92969-0.0531 0.75206-0.20397 1.2474-0.23047 1.3359-9e-3 0.0354-0.0176 0.079-0.0176 0.10547-0.33621 1.1856-1.0176 3.6816-1.0176 3.6816-0.32736 0.95556 0.71679 1.2559 0.71679 1.2559 0.63615 0.17696 1.5932 0.32775 2.2656 0.53125 0.0442 9e-3 0.0797 0.0164 0.13281 0.0254 0 0 0.795 0.25656 1.0781 0.15039 0.29198-0.10617 0.47815-0.54789 0.53125-0.68945 0.0442-0.14157 1.1057-3.8499 1.2207-4.248 0.0805-0.30082 0.044-0.90103-0.11523-1.2461 0.0531 9e-3 1.018 0.17656 1.5586 0.35351 0.45035 0.15926 1.0527 0.39887 1.3535 0.62891-0.46008 0.23004-0.76061 0.98953-0.78711 1.0957-9e-3 0.0177-0.0195 0.0262-0.0195 0.0352-0.0708 0.24774-0.15771 0.48767-0.22851 0.72656-0.33621 1.0175-0.77994 2.3174-1.125 3.3438-0.0531 0.27428-0.10488 0.95504 0.6914 1.2559 0.0443 9e-3 0.0797 0.0359 0.12305 0.0449 0.66358 0.24773 1.5046 0.54915 2.123 0.79688l0.0371 0.0117c0.0693 0.0224 0.23139 0.0684 0.42383 0.0684 0.30967 0 0.69111-0.11562 0.86718-0.64648 0.15926-0.48663 0.52222-1.5667 0.83985-2.5488 0.31056-0.97325 0.59256-1.8567 0.60156-1.9629 9e-3 -0.1858 0.23056-0.53146 0.36328-0.64648 0.36276-0.0265 0.62727 0.0265 0.875 0.15039 0.29198 0.14156 0.629 0.504 0.76172 0.63672-0.19465 0.33621-0.50438 1.1951-0.58398 1.6641-0.0619 0.39815-0.53077 2.106-0.75196 2.9023-0.0265 0.0619-0.0446 0.14991-0.0703 0.2207-0.0186 0.0266-9e-3 0.0525-0.0176 0.0879-9e-3 0.0265-0.0188 0.0448-0.01 0.0625-0.12387 0.82284 0.67187 1.2383 0.67187 1.2383 0.70782 0.33621 1.3895 0.66298 2.0098 0.97265 0 0 0.0887 0.0352 0.0977 0.0352 0 0 0.84773 0.27609 1.1309-0.56445 9e-3 -0.0265 0.0262-0.0535 0.0352-0.0625 0.28401-0.88477 0.50706-1.619 0.75391-2.5215 0.0619-0.24773 0.13251-0.4964 0.19531-0.74414 0.0168-0.0265 0.0251-0.0961 0.0351-0.19336 0.0168-0.0619 0.14039-0.50501 0.17578-0.77929 0.0267-0.14156 0.0266-0.2738 0.0176-0.3711 0 0 0.4699 0.18494 1.0176 0.42383 0.22119-1.858 1.0176-3.2461 1.0176-3.2461 0.17696-0.42469 0.43275-0.78788 0.70703-1.1152-9e-3 0-0.0176 8e-3 -0.0176 8e-3 1.0175-1.7518 2.8673-3.486 5.9375-4.123 3.7426-0.76975 10.202 1.4244 12.883 1.9199 2.3624 0.43354 6.7596-2.1317 9.2715-5.0957 0.46008-0.70782 0.7793-1.2207 0.7793-1.2207s-1.2562-3.4063-0.76953-6.6445c0.49546-3.2294 2.875-8.5469 2.875-8.5469l-0.21094-0.20704c-4.0906-4.1267-4.6897-12.161-4.7246-12.684l-2e-3 -0.0215v-6e-3c0.27428 1.7695 0.9909 3.5398 1.9199 5.2031 0.7786-1.1768 2.2916-2.7775 3.9726-5.1133 1.1944-1.6722 3.3711-6.2035 3.3711-11.742 0-6.2996-2.8138-13.917-13.068-20.154-0.0354-0.0266-0.071-0.0546-0.11524-0.0723-0.12387-0.0796-0.25595-0.15771-0.38867-0.22851-1.3183-0.79629-2.6285-1.4951-3.8574-2.0879-0.56714-0.27428-1.1147-0.52283-1.6367-0.76172-0.53087-0.23004-1.0359-0.44206-1.5137-0.63672-0.36275-0.15041-0.7078-0.28434-1.0352-0.40821-0.24774-0.0973-0.48764-0.18493-0.71679-0.27343-0.78834-0.29198-1.4422-0.50389-1.9199-0.6543-0.0973-0.0354-0.1859-0.0623-0.2832-0.0977-0.97325-0.30967-4.6987-1.434-9.3438-2.3984-2.3615-0.4023-4.5436-0.59945-6.5606-0.625zm-96.332 16.213s-2.8186 17.61 10.848 42.641l0.98047 1.7617c0.6397 1.0405 1.441 2.433 2.4726 4.1211 4.9512 7.9276 11.533 16.454 20.348 25.328l0.0215 0.0215c0.54994 0.54003 11.082 10.915 15.635 14.928 1.8076-0.4937 3.7057-0.90218 5.6699-1.2207-6.5066-5.3812-12.918-11.271-18.779-17.621-29.629-32.097-35.29-61.943-37.195-69.959zm70.229 17c0.20261 0.0796 3.4148 1.487 6.2461 4.1855 0.28401 0.26632 0.5579 0.54002 0.82422 0.82227 3.0772 3.3453 5.9898 6.4058 8.8477 7.3613 0.92902 0.30967 1.9102 0.38124 2.8047 0.33789 9e-3 0 0.0255 2.3e-4 0.0449-0.01 0.24685-9e-3 0.48568-0.0262 0.71484-0.0527 1.4687-0.1858 2.6387-0.57617 2.6387-0.57617s-1.5218 2.3292-2.5137 3.6289c-0.99891 1.3095-5.2472 6.016-8.4492 5.6621-0.0257 0-0.0536-0.0176-0.0801-0.0176-3.3542-0.16811-8.4938-2.9375-10.477-4.8574-0.26455-0.26543-0.67084-0.84179-0.67969-0.84179-0.0619 0.0531-0.12648 0.0983-0.19726 0.14257 0.0708-0.0442 0.13533-0.0973 0.19726-0.15039 0.0354-0.0354-0.63935-1.2045-0.68359-1.293-1.0617-2.5658-0.81397-5.7593-0.15039-8.334 0.19465-0.75206 0.42678-1.4952 0.71875-2.2207 0 0 1.1499-2.4865 0.48633-3.4863-0.0796-0.0885-0.16931-0.17818-0.24805-0.25781l-0.0176-8e-3c0-8e-3 -0.0108-0.0165-0.0273-0.0351zm32.766 15.645s0.0341 0.0437 0.0527 0.0703c0.13272 0.19465 0.75163 1.0525 1.6992 1.9629 0.16811 0.16811 0.34457 0.32814 0.53125 0.48828 9e-3 8e-3 0.0244 0.0175 0.0332 0.0352 0.69101 0.5751 1.5066 1.1054 2.4453 1.416 2.856 0.9644 7.0241 0.28274 11.492-0.53125 0.39019-0.061 0.76905-0.11502 1.1504-0.16015 4.008-0.45919 7.5312 0.42578 7.5312 0.42578l8e-3 0.0254-0.0801-8e-3c-0.11591 0.0168-0.22875 0.035-0.35351 0.0527-1.1316 0.39726-1.7168 3.0801-1.7168 3.0801-0.2212 0.80515-0.49597 1.5907-0.82422 2.3613-0.75206 1.7333-1.795 3.4246-3.1133 4.7969-0.99095 1.0352-2.0789 1.5492-3.291 2.2305l-0.01-0.01c-0.0168 0-0.69868 0.2125-1.0606 0.25586-2.7446 0.3371-8.5128-0.54711-11.281-2.4414-0.0274-9e-3 -0.0457-0.0193-0.0625-0.0273-2.7791-1.6554-3.3368-7.9814-3.3457-9.6192-8e-3 -1.627 0.18537-4.3568 0.19531-4.4043zm-40.816 20.967c-0.95313 0.01-2.0807 0.16418-2.7734 0.74415 0 0 0.80658 4.4358 2.9805 8.3359 2.1704 3.8974 4.7577 10.74 5.7168 13.504 0.39373 1.1352 1.1618 2.4218 2.4199 3.7109 1.7262-0.95909 5.9576-0.65968 10.566 0.88867 4.4088 1.4811 7.8487 3.6596 8.8379 5.4238 1.5855-0.29197 2.8389-0.82346 3.7617-1.4375 2.4367-1.6244 8.6204-5.5226 12.709-7.3223 4.0832-1.7988 7.4004-4.8496 7.4004-4.8496-0.33533-1.4572-2.3088-2.6949-2.9883-3.0859-0.40611 0.0743-2.0214 0.39782-2.8301 0.99415-0.92459 0.68127-4.2858 5.6824-8.6875 7.5625 0.41673-2.4747-1.1843-3.7563-1.5957-3.7129-0.40789 0.0487-0.73346 1.0186-0.81836 1.2637-0.0849 0.24862-0.9344 1.9222-1.2246 2.707-0.29023 0.7857-0.20313 0.84765-0.20313 0.84765-0.70693-0.0194-1.4134-0.0584-2.1133-0.11328 0.6742-1.2705 1.2747-2.5339 1.8418-3.793 0.40965-1.0511-0.71275-1.2821-0.71875-1.2891-0.6273-0.0964-1.2525-0.20068-1.8789-0.31836-0.0247-4e-3 -0.0419 5e-5 -0.0684-2e-3 -0.78568-0.13979-1.2624 0.35152-1.3633 0.65234-0.0779 0.19908-0.15233 0.39733-0.23633 0.59375-0.28667 0.69543-0.59743 1.3873-0.89648 2.0801-0.0141 0.0398-0.0237 0.0848-0.0449 0.12109-0.35569 0.87593-0.0547 1.6094-0.0547 1.6094-0.24597-0.0168-0.82845 2e-3 -1.8106-0.19141-0.46627-0.0929-1.0879-0.36914-1.0879-0.36914 0.34594-0.28313 0.5555-0.82136 0.5625-0.81836 0.62553-1.5307 1.5938-3.9082 1.5938-3.9082s0.38196-1.0234-0.28516-1.2207c-0.90158-0.22473-1.7987-0.4702-2.6914-0.73828-0.67685-0.14334-0.97258 0.41238-1.0469 0.59375-0.13802 0.35922-0.38059 0.91171-0.46289 1.1621-0.34418 0.97857-0.68457 1.9522-1.0234 2.9219 0 0.015 1e-4 0.0267-4e-3 0.0391-0.21054 0.62553-0.0449 1.2129-0.0449 1.2129s-0.86661-0.17743-1.3223-0.29687c-0.46008-0.12122-1.1445-0.60156-1.1445-0.60156 0.1106-0.11414 0.24319-0.42334 0.33789-0.64454 0.41495-1.4519 0.8057-3.2717 1.1543-4.7891 0.0257-0.21234 0.0314-0.84325-0.60742-1.1113-0.76091-0.27782-1.5208-0.56905-2.2676-0.87695-0.66358-0.2088-0.95509 0.33721-1.0586 0.66016-0.30083 1.374-0.65347 3.0163-0.88086 4.209-0.0956 0.83699 0.28321 1.4219 0.28321 1.4219-0.35037-0.0867-1.0602-0.39323-1.6309-0.63477-0.37338-0.15749-1.2031-0.70117-1.2031-0.70117 0.42469-0.038 0.66797-0.94336 0.66797-0.94336 0.47335-0.97944 0.78642-1.8277 1.1562-2.7559 0.0142-0.0451 0.0346-0.0819 0.0488-0.12695 0.0106-0.0274 0.0145-0.0477 0.0312-0.084 0.3663-0.98387-0.31945-1.5066-0.43359-1.5898-0.98652-0.49282-2.0988-1.0742-2.1094-1.0742-0.56449-0.3026-0.94305 0.0968-1.0625 0.48438-0.39195 1.1077-1.0044 2.1137-1.2168 3.332-0.0982 0.69012-0.041 1.1738-0.041 1.1738-1.3457-0.64146-1.8418-1.6543-1.8418-1.6543 0.32117-0.38488 0.74977-1.7431 0.75977-3.0137 0.0142-1.2714 0.0946-2.4578-0.5-2.8789-0.59457-0.42204-1.5871 0.64568-2.0977 1.4004-0.50609 0.75383-0.62305 1.1934-0.62305 1.1934v0.0977c-2.3844-4.1531-2.0519-10.189-2.373-11.297-0.33002-1.1007-1.7305-2.5723-1.7305-2.5723s-0.7793-0.13484-1.7324-0.125zm132.01 11.557c-0.0327 0.0655-1.1258 0.9672-2.8848 2.3926-0.75382 0.62111-1.5786 1.2918-2.5156 2.0332-10.253 8.0966-31.637 22.659-66.455 28.916-8.439 1.5165-17.038 2.347-25.412 2.7168 1.3785 1.4263 2.6397 2.8784 3.7891 4.3516 0 0 3.6638-0.26895 4.1699-0.31054 6.3199-0.53086 12.637-1.3005 18.881-2.4277 15.446-2.7888 27.123-6.734 32.67-8.8203 1.2971-0.5114 2.535-1.0361 3.748-1.5625 27.285-11.837 33.844-26.903 34.01-27.289zm-180.36 29.459c-2.0155 0.01-4.0302 0.20762-6.0254 0.48633-1.7678 0.24596-3.4646 0.55406-5.0996 0.53906-0.39019-1e-3 -0.76927-0.0227-1.1387-0.0723l-0.36524-0.0586c-0.46009-0.0867-0.90792-0.21673-1.3476-0.4043 0.0195 0.0726 0.97212 4.1035 6.2949 4.1035 0.0504-0.0566 0.23593-0.4079 0.26953-0.4707 0.50874-0.96175 1.5062-1.8769 2.4414-2.4219 0.01-6e-3 0.0183-0.0155 0.0273-0.0195 1.6351-0.9821 4.2035-1.5766 5.8262-1.666 0.0469-5e-3 -0.57225-0.0176-0.88281-0.0156zm1.127 0.0137c-1.4466 0.27959-3.1078 0.79787-4.2695 1.5606-1.3475 0.87504-2.2185 1.9659-2.6777 2.8984 4.4168-0.52202 12.785-0.41229 14.9-0.0469 0.0133-0.0159 0.032-0.034 0.0488-0.0508 1.2201-1.9297 3.0299-2.7884 4.3438-3.2246-2.1889-0.34683-4.7563-0.64059-6.9629-0.83789-1.0962-0.0982-2.1941-0.17737-3.293-0.23047-0.69632-0.0345-1.3926-0.0542-2.0898-0.0684zm45.84 4.0078c-0.61137 0.73967-1.1911 1.5036-1.7344 2.291-0.61403-0.0876-1.2215-0.16748-1.8223-0.23828-0.0619 0.0743-0.11948 0.15241-0.17968 0.22851-0.5176 0.64854-1.0155 1.3209-1.4941 2.0137-0.15484 0.22385-0.30858 0.44839-0.45899 0.67578 0.69277 0.12033 1.3957 0.24744 2.1035 0.38281-0.66978 1.2794-1.2443 2.6136-1.6973 4 1.0962 0.13626 2.193 0.29592 3.2812 0.48437 0.45831-1.3166 0.99888-2.5908 1.6094-3.8242 1.1254 0.24862 2.2667 0.51945 3.416 0.81054-0.54502 1.2006-1.0495 2.4308-1.498 3.6934 1.0777 0.23712 2.1581 0.49334 3.2207 0.77735 0.43531-1.236 0.90116-2.4465 1.3887-3.6348 1.1033 0.31409 2.2114 0.64715 3.3262 1.002-0.42823 1.19-0.85085 2.3983-1.2676 3.6211 1.0529 0.32648 2.0932 0.67741 3.1328 1.0508 0.40434-1.2272 0.79495-2.4466 1.1719-3.6543 1.1051 0.38753 2.192 0.78691 3.2617 1.1992-0.32825 1.244-0.68974 2.495-1.0879 3.7461 1.0193 0.41761 2.0338 0.86256 3.0371 1.3262 0.40435-1.2865 0.75062-2.5784 1.0391-3.8711 1.0927 0.45654 2.1644 0.92438 3.2129 1.4004-0.25747 1.3617-0.59645 2.7139-1.0273 4.0508 0.97945 0.50963 1.9523 1.0408 2.9043 1.5938 0.48043-1.3953 0.8323-2.8185 1.0703-4.2598 0.645 0.31321 1.2779 0.62962 1.9043 0.94726 0.0133-0.23978 0.0265-0.47987 0.0371-0.71875 0.0372-0.83169 0.0479-1.6585 0.0293-2.4805-4e-3 -0.14687-7e-3 -0.29347-0.0117-0.43946-0.52201-0.29994-1.0503-0.59707-1.5918-0.89258 0.0392-0.93167 0.0357-1.8656-6e-3 -2.8008-0.89628-0.5114-1.783-0.99676-2.666-1.4551-0.0159 0.92726-0.0639 1.8594-0.14258 2.791-0.98387-0.48839-1.9941-0.965-3.0293-1.4277 0.13626-0.92548 0.24849-1.851 0.33789-2.7676-0.86796-0.40611-1.7265-0.78531-2.5918-1.1445-0.1628 0.89982-0.3446 1.8089-0.54102 2.7246-0.99272-0.39903-2.0035-0.78517-3.0352-1.1524 0.26631-0.89805 0.525-1.7853 0.77539-2.6621-0.86442-0.31144-1.7356-0.60249-2.6133-0.875-0.33002 0.84938-0.6611 1.715-0.99024 2.5918-1.0467-0.32648-2.0868-0.62825-3.1211-0.9043 0.39727-0.85292 0.80379-1.6915 1.2188-2.5117-0.90336-0.23093-1.8244-0.44759-2.7578-0.64843-0.48663 0.79187-0.95715 1.6046-1.4102 2.4336-1.1113-0.25039-2.2102-0.47457-3.2949-0.67187 0.50521-0.80603 1.0372-1.5928 1.5938-2.3555-0.97856-0.16457-1.9783-0.31349-3.002-0.44532zm53.861 26.441c0.78302 1.1369 1.7201 2.9988 1.5352 5.2656 1.8978 0.98298 8.6404 5.9393 11.848 9.0254 0.19642-1.0228 0.15881-2.4194-0.39063-3.9297-0.46628-1.3104-1.4725-2.7223-2.459-3.8203-0.12741-0.0947-0.2556-0.18956-0.38477-0.28516-1.0095-0.72463-2.046-1.4124-3.0918-2.084-1.4643-0.94052-2.9533-1.8432-4.4609-2.7129-0.7149-0.41142-1.436-0.81351-2.1562-1.2187-0.15218-0.0858-0.29259-0.15704-0.43946-0.24024zm10.703 6.6543c0.0646 0.054 3.0214 3.1725 3.6699 4.873 0.38842 0.96175 0.60382 2.1546 0.54102 3.1934-0.0168 0.28667-0.0591 0.54148-0.11133 0.78125 4e-3 4e-3 0.0116 0.0184 0.0156 0.0234 0.18668 0.14067 0.3694 0.27332 0.55078 0.39453 0.29551 0.19819 0.60388 0.37342 0.91797 0.53711 0.49813 0.25658 1.0184 0.45322 1.5625 0.58594 0.38841 0.0938 0.8238 0.1543 1.2246 0.1543 1.167 0 2.251-0.4546 3.1738-1.1465l0.041-0.0293c-0.44947-0.10882-0.87356-0.26789-1.2832-0.46874-0.44769-0.21943-0.8791-0.49966-1.3047-0.81641-0.56183-0.4185-2.2203-1.9826-2.6211-2.3887-0.54502-0.55033-1.0953-1.0945-1.6465-1.6387-0.66889-0.65737-2.123-2.0005-2.8008-2.5137-0.14864-0.11237-1.9297-1.541-1.9297-1.541zm52.719 33.166c-0.11325 0.0442-0.2298 0.0798-0.34571 0.11524-3.954 1.2387-7.9799 2.3176-12.051 3.3086-0.46008 0.69897-23.401 34.943-31.516 46.215 0.19376 0.16812 5.66 4.8487 5.8379 4.9902 2.1934-2.9552 34.031-48.497 38.074-54.629zm-55.645 60.238c-0.0885 0.13271-0.17517 0.26573-0.26368 0.39844-1.8678 2.9021-3.7091 5.823-5.4609 8.7949-1.682 2.8507-4.9825 9.221-5.1055 9.4688-0.0177 0.13271-0.82157 4.8836 0.0605 8.5723 3e-3 -8e-3 6e-3 -0.0154 0.01-0.0234 0.0328-0.084 0.0789-0.19329-8e-3 0.0332 5.4484-11.997 11.583-20.015 11.592-20.023-1.1166-3.2922-0.89852-6.6093-0.82422-7.2207zm-10.98 18.971c-0.23889 0.49547-0.48584 0.99188-0.70703 1.4785-4.8494 10.6-4.7008 18.227-9.4512 22.438 0 0 0.11682 0.0351 0.32032 0.0625 1.2741 0.16811 6.0871-0.017 8.5742-11.439v-0.01c-0.1681-0.63615-0.31189-1.292-0.40039-2.0078-0.41496-3.302 0.59271-7.8321 1.6465-10.469 9e-3 -0.0177 0.0176-0.035 0.0176-0.0527z" fill="#fff"/>
   <path d="m279.2 130c-20.403 0.0885-26.206 15.271-27.064 18.748-0.91131 3.6984-0.90289 8.3883-1.1152 10.512 0 0 3.9191-0.55723 7.582-2.0879 0.10616-1.3448-0.11463-3.6096-0.0527-6.9629 0.0885-4.592 4.9452-23.492 30.135-19.201l-0.12305-0.0254c-0.82284-0.16811-1.6729-0.33592-2.5488-0.48633-2.4331-0.34506-4.6979-0.4961-6.8125-0.4961zm25.934 6.2383c1.229 0.59279 2.5391 1.2916 3.8574 2.0879 0.13272 0.0708 0.2648 0.14891 0.38867 0.22851 0.0442 0.0177 0.0798 0.0458 0.11524 0.0723 10.255 6.2377 13.068 13.855 13.068 20.154 0 5.5387-2.1767 10.07-3.3711 11.742-1.6811 2.3358-3.194 3.9365-3.9726 5.1133 1.4165 2.557 3.3004 4.8404 4.6992 6.3711 1.1936-1.9376 3.9177-5.3356 5.2891-8.7774 1.513-3.8311 7.3263-23.871-19.049-36.559zm-119.34 10.357s-0.16992 0.50386-0.16992 0.50586c-1.1449 3.3719-1.577 7.0527-1.7637 10.592-0.31675 5.9882 0.24472 12.01 1.5117 17.867 1.3457 6.2226 3.4994 12.218 6.1387 18.004 2.7003 5.9218 6.0391 11.543 9.7578 16.881 4.5787 6.5756 9.8025 12.696 15.467 18.361 2.4314 2.4314 4.939 4.7833 7.5137 7.0625 0.31587 0.28047 2.8938 2.8448 3.1504 2.7227 1.6068-0.76621 3.3616-1.4727 5.2285-2.123l-0.7793-0.68554c-25.545-22.596-35.285-46.688-35.285-46.688l0.0371 0.0644c-13.618-24.99-10.807-42.564-10.807-42.564zm79.289 12.238c-0.29554 0.0105-0.58198 0.0486-0.85742 0.11719 0 0.11502 5.9462 3.6534 9.1934 7.043 3.0967 3.5745 7.9708 8.0505 10.908 8.998 2.9206 1.0184 9.5024 0.3903 14.139-0.5918 4.6645-0.75208 11.584 0.025 11.584-0.0723-2.8578-3.5391-12.59-2.5291-18.076-2.2734-4.7521 0.3716-6.1774-0.33511-6.5039-0.45898-0.31852-0.0885-1.8845-0.38915-5.4688-3.5566-3.9475-3.2938-10.485-9.3633-14.918-9.2051zm-9.0879 4.7617s-3.619 6.6267-3.9375 10.061c-0.32737 3.4418-0.55701 6.6542 3.1953 9.1758-0.11502-0.15925-1.558-2.2292 0.2832-3.3086 0.0708-0.0434 0.14014-0.0895 0.21094-0.14258 0.0708-0.0442 0.13536-0.0973 0.19726-0.15039 0.0354-0.0354-0.63939-1.2025-0.68359-1.291-1.0617-2.5658-0.81397-5.7612-0.15039-8.3359 0.19465-0.75206 0.42678-1.4952 0.71875-2.2207 0 0 1.1499-2.4865 0.48633-3.4863-0.0796-0.0885-0.16935-0.17626-0.24805-0.25586l-0.0176-0.01zm-11.236 10.998s-0.23047 2.2574-0.23047 4.5312c0 0.91132 0.0277 1.8327 0.125 2.6016 0.0531 0.3893 0.12352 0.74126 0.20312 1.043 0.69897 2.4066 0.77892 3.9292 5.9902 6.2207 1.7784 0.77772 3.5386 1.6108 5.2285 2.5664 2.5313 1.4333 5.2566 3.1236 6.3086 6 9e-3 0.0256 0.0105 0.0515 0.0273 0.0781 0.28401 0.72551 0.30899 1.6279 0.11523 2.3711 0-0.0964-0.0446-0.22168-0.10742-0.35351-0.23004-0.45212-0.6273-0.77844-0.88476-1.2031 0-9e-3 -9e-3 -0.0165-0.0254-0.0352-0.56714-0.645-1.177-1.2391-1.8945-1.7266v0.0273l-0.0176-0.0352s-0.54802 1.9203-1.4062 3.3359c-0.48751 0.81399-1.01 1.7155-1.5586 2.9551 0 0.0177-8e-3 0.0359-0.0156 0.0527-1.0706 2.78 0.17677 5.7176 0.46875 5.7344 0.34506 0.0265 1.0796-0.30909 2.4688-4.2109 0.0354-0.0894 0.10529-0.27502 0.15039-0.47852 0.0354-0.1858-0.0278-0.52347-0.10742-0.79687 0 0 0.01-0.0193 0.0176-0.0449 0.16899-0.63793 0.98487-0.58339 1.498-0.52149 0.17607 0.0177 0.35161 0.0437 0.52149 0.0879 0.30879-0.76976 0.69808-1.8319 0.88476-2.7246 0.58395-2.1677 0.51276-5.2202-2-8.0957-2.5234-2.8764-9.0093-5.0182-11.434-6.2383-2.4331-1.221-4.6182-7.0884-4.3262-11.141zm33.385 1.0703s-1.5218 2.3292-2.5137 3.6289c-0.99891 1.3095-5.2472 6.016-8.4492 5.6621v0.0137c-2e-3 0.12681-0.0852 1.1553-2.2207 2.5781 0 0 3.6816 1.1772 6.4492-0.34375 2.78-1.5218 6.4497-8.4672 11.123-6.9551 4.6362 1.6191 3.3801 9.3706 4.6719 12.256 1.2466 2.8056 4.7154 4.0874 4.9277 4.1582-0.88477-2.5756-0.19217-3.3965-0.20117-3.3965-2.7702-1.6554-3.3289-7.9814-3.3379-9.6191-8e-3 -1.628 0.18531-4.362 0.19531-4.4062-2.0801 1.0706-9.6801-1.4793-10.645-3.5762zm35.508 7.3008c-0.11591 0.0168-0.22875 0.035-0.35351 0.0527-1.1316 0.39726-1.7168 3.0801-1.7168 3.0801-0.2212 0.80515-0.49597 1.5907-0.82422 2.3613-0.75206 1.7333-1.795 3.4246-3.1133 4.7969-0.99095 1.0352-2.0789 1.5492-3.291 2.2305 0.0354 0.15925 0.0787 0.30947 0.14062 0.45899 0.83965 2.0624-1.7871 2.8223-1.7871 2.8223 4.5318 0.24773 6.2722-2.4601 8.0957-5.3984 1.8226-2.9286 2.9297-10.396 2.9297-10.396zm-34.594 2.1699c-1.507 0.0999-2.8006 0.96621-3.2598 2.3066-0.37957 1.1502-1.0152 1.8405-1.8398 2.7598l-0.0254 0.0371c-0.62819 0.75206-1.116 1.0345-1.7168 1.4238-0.58572 0.35391-1.4079 0.98243-1.7344 2.0274l-0.4707 1.3965c-0.62731 1.8766 0.6126 3.9824 2.7617 4.707 0 0-0.9368-1.1665-0.46875-2.5644 0-0.0185 9e-3 -0.0448 0.0176-0.0625-0.62024-0.64589-0.92073-1.5297-0.63672-2.3711l0.49609-1.459c0.49459-1.4962 1.7859-1.3644 3.2988-3.2578 0.81399-0.93786 1.6384-1.84 2.125-3.291 0.3893-1.1679 1.7063-1.8146 3.0078-1.4863-0.52666-0.14821-1.0524-0.19934-1.5547-0.16602zm2.0352 0.32422c1.2201 0.53706 1.8726 1.8312 1.4824 3-0.48574 1.4413-0.39709 2.6548-0.30859 3.9023 0.0619 2.4154 1.1673 3.0887 0.67187 4.584l-0.49609 1.4609c-0.28136 0.84938-1.0615 1.3781-1.9551 1.5117 0 0.0168-8e-3 0.035-0.0156 0.0527-0.4707 1.3891-1.9199 1.7595-1.9199 1.7695 2.158 0.71666 4.4235-0.21221 5.0508-2.0977l0.46875-1.3965c0.37161-1.0254 0.0805-2.0252-0.16016-2.6543-0.23801-0.67242-0.45855-1.1946-0.50195-2.1758v-0.0195l-0.0117-0.0352c-0.0876-1.221-0.17537-2.1408 0.20508-3.291 0.60253-1.8014-0.5093-3.8106-2.5098-4.6113zm-33.803 4.5605s-8e-3 0.0258-0.0176 0.0762c-0.18315 0.74675-1.6451 6.8085-1.9805 9.7539-0.35922 3.1356 0.12345 4.6582 0.71094 6.4844 0.58395 1.8235 3.3368 9.6269 4.0137 11.754 0.0867 0.26632 0.17987 0.5995 0.28516 0.98438 0.73171 2.6932 2.0009 7.9344 4.5605 10.691 2.9029 3.1277 5.7053 4.5357 9.1621 5.6992 7e-3 3e-3 0.021 4e-3 0.0352 8e-3 0.01 5e-3 0.0206 0.0117 0.0312 0.0137 1.728 0.57864 3.3658 1.0104 5.0938 1.2051 1.728 0.19376 3.5508 0.14895 5.6504-0.22266 4.2336-0.75117 9.0806-5.1015 10.902-6.3906 1.828-1.2882 8.7335-5.8488 10.297-6.9512 1.566-1.106 2.8726-2.0314 4.4785-4.7441 1.6112-2.7233 4.332-9.0469 4.332-9.0469s-2.6111-0.51581-3.4746-0.6211c0 0-0.0136 0.0234-0.041 0.0703-0.38487 0.68039-3.4985 6.1728-4.6328 7.3203 0 0-0.0335 5e-3 -0.0937 0.0156 0.67951 0.39107 2.653 1.6287 2.9883 3.0859 0 0-3.3172 3.0509-7.4004 4.8496-4.0885 1.7996-10.272 5.6978-12.709 7.3223-0.92282 0.61404-2.1762 1.1436-3.7617 1.4355-0.98918-1.7642-4.4291-3.9408-8.8379-5.4219-4.6088-1.5484-8.8422-1.8478-10.568-0.88867-1.2582-1.2891-2.0262-2.5758-2.4199-3.7109-0.95909-2.764-3.5445-9.6065-5.7148-13.504-2.1739-3.9001-2.9805-8.3359-2.9805-8.3359 1.3856-1.1599 4.5059-0.61915 4.5059-0.61915-0.0297-0.21234-0.0372-0.50741-0.0332-0.86132 0.0327-2.3057 0.66761-7.0971 0.75781-7.7695 7e-3 -0.0522 0.0117-0.0781 0.0117-0.0781-0.74852-0.43707-3.1504-1.6035-3.1504-1.6035zm68.061 9.748c-2.5119 2.9631-6.9013 5.5292-9.2637 5.0957-2.6818-0.49636-9.1413-2.6906-12.885-1.9199-3.079 0.63703-4.9268 2.3799-5.9531 4.1406 9e-3 -9e-3 0.0166-0.0254 0.0352-0.0254 0.0168-0.0177 0.0251-0.0185 0.0352-0.0371 2.0704-2.388 5.8309-2.2905 8.6719-1.9277 2.2199 0.27428 4.4231 0.7445 6.5996 1.2656 5.5475 1.3104 6.5297 0.1506 8.5293-1.3535 1.7182-1.2918 3.1239-3.2837 4.168-5.1426 0.0256-0.0345 0.0457-0.0603 0.0625-0.0957zm-24.404 7.4336c-2.8038-0.1336-4.3711 0.97265-4.3711 0.97265l-0.0156 0.0274c-0.11293 0.20649-0.79724 1.5164-1 3.2188 0 9e-3 1.0778 0.48653 1.291 0.60156 0.18581 0.10617 0.48458 0.22151 0.59961 0.4082 0.26541 0.38045 0.33789 0.53125 0.33789 0.53125-0.25659 0.0443-0.51383 0.0788-0.76953 0.12305-0.14156-9e-3 -0.77929 0.22224-0.77929 0.41601-1.2378 3.9647-0.85839 4.6638-0.56641 4.8496 0.24862 0.15838 3.0092-1.4243 3.832-4.291 0-0.0177 0.46024-2.4088 0.55664-3.3555 0.16987-1.5307 0.80607-3.274 0.88477-3.4863l-0.0176 0.01c0-9e-3 0.0176-0.0254 0.0176-0.0254zm89.031 4.5625c-0.16545 0.38576-6.7251 15.453-34.01 27.289l-0.17187 0.13867s-22.678 13.5-57.131 15.967c1.1024 1.6368 2.077 3.2595 2.8945 4.8476 10.72-0.60165 21.57-2.0928 31.822-4.9355 6.5544-1.8182 13.006-4.1257 19.16-7.0312 6.1952-2.9251 12.27-6.4229 17.613-10.734 3.4842-2.8118 6.7492-5.8434 9.7441-9.1719 4.1204-4.5778 7.8837-10.029 9.916-15.889 0 0 0.16611-0.48246 0.16211-0.48046zm-160.78 21.848c-0.0514-5e-3 -0.10747-3e-4 -0.16797 0.0156-0.28932 0.0805-0.48975 0.31708-0.41015 0.77539 0.0761 0.45743 0.54544 1.7903-0.13672 3.8359-0.68482 2.0544-2.2205 3.3792-3.7344 4.041-1.5085 0.66093-3.3667 2.1591-3.8887 4.6055-0.51494 2.4455-1.8379 5.6649-1.4707 7.791 0.1398 0.80957 0.94076 1.9303 2.7891 1.8516-1.2626 1.0458-2.4541 0.96778-3.4238 0.52539-1.5298 2.8233-3.833 3.9859-8.0215 3.1719-4.2876-0.83169-9.7155-4.9418-10.842-11.883 1e-3 -0.12314 1.4353-0.13576 2.0234-0.13672h0.26172c-0.25305-0.33002-0.52527-0.80876-0.54297-1.3281-7e-3 -0.28932 0.11391-0.66152 0.29883-1.0606-5.3228 0-6.2754-4.031-6.2949-4.1035 0 0-1.6881 1.3564-1.7598 3.6719-0.18315-0.95555-0.94876-1.7354-1.9609-1.8867-1.282-0.19731-2.4848 0.6862-2.6777 1.9727-0.19377 1.2847 0.69452 2.4879 1.9766 2.6816 1.2829 0.19199 2.4859-0.68992 2.6797-1.9746 5e-3 -0.031 4e-3 -0.0619 8e-3 -0.0937 0.0301 0.27428 0.0827 0.56191 0.16406 0.85742 0.22296 0.8193 0.52752 1.4014 0.83985 1.8438 0.75028 1.06 1.5664 1.2129 1.5664 1.2129 9e-3 2e-3 0.11405-0.15016 0.12305-0.16016 0.0557-0.0655 0.5338-0.56413 0.5957-0.52343-0.53882-0.34861-2.8337-2.0877-1.4375-5.8887 0 0-0.0796 3.4297 2.7578 5.2558 0.31145 1.4201 2.5363 9.9078 10.859 12.549 9.0866 2.887 12.589-1.4446 13.404-3.0762 0.36983-0.74675 1.2988-3.0625 1.2988-3.0625 0.78833-2.2571 2.7868-11.038 3.5371-12.061 0.74674-1.0263 3.0001-5.1359 2.0879-8.9121 0 0-0.14234-0.47461-0.50196-0.50781zm-17.092 11.729c-2.9086-8e-3 -6.1041 0.0945-8.3125 0.35547-0.23004 0.47158-0.38786 0.91341-0.38086 1.2461 0.0142 0.50874 0.25256 0.96796 0.48437 1.3086 0 0 8.0985 0.43107 13.189 1.8281 0.20262-0.72463 0.46586-1.613 0.81446-2.6934 0.21766-0.68747 0.51354-1.2649 0.84179-1.7852-0.0168 0.0159-0.0355 0.0329-0.0488 0.0488-1.0578-0.1827-3.6793-0.30074-6.5879-0.30859zm98.609 15.617c-0.27559-0.0571-0.56641 0.15821-0.56641 0.15821-3.0091 2.4606-3.6897 7.0986-3.7109 8.3691-0.0186 1.2705-3.7243 9.474-4.4551 11.746-0.031 0.0947-0.66367 2.0447-0.81055 3.2285-0.22473 1.812-0.15657 7.3585 8.8301 10.541 8.2293 2.9127 15.098-2.545 16.207-3.4961 2.3119 0.17165 3.9928-1.0347 4.8086-1.8398 0.37339-0.36629 0.5918-0.64844 0.5918-0.64844-0.88831 2.9171-2.7416 3.6358-3.875 3.7969-0.36807 0.0513-0.663 0.0455-0.82226 0.0312 0.0239 0.0743 0.0331 0.13292 0.0508 0.19922 0.13092 0.4884 0.10351 0.78321 0.10351 0.78321s0.26774 0.12705 0.73047 0.15625c0.65119 0.0398 1.6976-0.11838 3.0371-1.1465 0.22738-0.17784 0.40065-0.368 0.58203-0.55469-0.52379 1.106-0.11915 2.4365 0.97266 3.0293 1.1307 0.61492 2.5458 0.19236 3.1562-0.9375 0.61492-1.1272 0.19325-2.5438-0.9375-3.1543-0.83257-0.45478-1.8151-0.34085-2.5176 0.19532 0.68215-1.1272 0.76261-2.2834 0.72461-3.0098-5e-3 -0.12387-0.0838-0.68545-0.0937-0.68945-9e-3 8e-3 -0.0206 0.0135-0.0312 0.0215-0.92282 0.69189-2.0068 1.1465-3.1738 1.1465-0.40081 0-0.8362-0.0605-1.2246-0.1543-0.54414-0.13272-1.0644-0.32936-1.5625-0.58594-0.31409-0.16369-0.62246-0.33892-0.91797-0.53711-0.18138-0.12121-0.3641-0.25386-0.55078-0.39453l-0.0215-0.0156c-0.0929 0.42735-0.22097 0.79781-0.40235 1.0234-0.32471 0.40434-0.83496 0.6222-1.2305 0.73633 8e-3 3e-3 0.0164 0.0106 0.0254 0.0176 0.5928 0.47512 1.2022 0.89435 1.7109 1.4668-5.0839 4.853-11.892 4.8601-15.816 2.9375-3.8364-1.8819-4.9662-4.2006-4.4805-7.3867-1.037-0.23004-2.0377-0.86978-2.4102-2.4668 0.0345 0.0309 0.077 0.05 0.11328 0.0801 0.88388 0.71402 2.3271 0.97545 3.2207 0.12695 0.80514-0.76533 1.4305-2.022 1.9941-3.373 0.51493-1.2396 0.96038-2.5109 1.5293-3.7266 0.22916-0.49282 0.39483-1.0313 0.48243-1.5684 0.25658-1.5121-0.0617-3.1219-0.80664-4.457-0.8016-1.4386-1.2334-3.4219-0.53711-5.4746 0.69455-2.0394 1.8678-2.821 2.2031-3.1387 0.34241-0.31498 0.32201-0.62848 0.14063-0.86914-0.0772-0.0976-0.16791-0.14697-0.25977-0.16602zm1.2617 15.994s-0.17838 1.1712-0.41992 1.8613c-0.38134 1.0732-0.70176 1.9386-0.98047 2.6367 4.5185 2.0341 8.8043 4.5685 11.625 6.5 0.39727-0.1336 0.85921-0.35292 1.1777-0.75195 0.2035-0.26101 0.34445-0.70664 0.44532-1.2207-3.2073-3.0861-9.9498-8.0424-11.848-9.0254zm77.018 29.043c-2.8667 1.2033-5.7694 2.3525-8.752 3.4062-8.5292 13.405-37.624 56.664-40.162 60.283 1.5572 1.2997 2.9636 2.4954 4.0527 3.4863 0.0434 0.0354 0.12448 0.0886 0.17578 0.13281 7.4427-10.769 38.917-58.187 44.686-67.309zm-79.16 49.256c-0.3186-5e-3 -0.97102 0.0653-1.0918 0.70899-0.0796 0.52202 0.14135 1.0084 0.92969 1.2207 0.77948 0.20349 3.2289 0.45266 5.9629 3.0273 2.734 2.5747 3.7076 5.9723 3.6562 8.8398-0.0708 2.8667 0.94667 6.9094 4.4238 9.5195 3.494 2.6101 7.6167 7.0159 11.236 8.0254 0.22119 0.061 0.43311 0.0966 0.6543 0.11523 2.3986 0.21235 4.6713-1.9471 4.3086-3.1602 0.78833 2.6198 0.0713 4.5222-1.1055 5.8848 4.0178 3.9549 5.9654 8.4673 4.709 12.529-1.6023 5.2202-7.4333 12.237-18.096 12.096-7.5914-0.0973-12.052-2.2117-13.998-3.4238 9e-3 -0.0186 0.65501-1.4682 0.69921-1.5664-4.4504 1.0706-6.0776-5.5205-6.1484-5.8125-2.4871 11.422-7.3001 11.608-8.5742 11.439-0.2035-0.0274-0.32032-0.0625-0.32032-0.0625s0.95583 3.7362 4.6719 5.5234c-1.6908-0.50521-3.5655 0.10491-4.5918 1.6621-1.2564 1.8934-0.73414 4.4506 1.1602 5.707 1.9023 1.2475 4.4507 0.73517 5.7168-1.168 1.2466-1.8925 0.73322-4.4497-1.1699-5.6973-0.0973-0.0619-0.18485-0.0973-0.28125-0.15039 0.50344 0.1858 1.0166 0.35297 1.6191 0.45117 4.9547 0.82284 6.582-1.5664 6.582-1.5664s-0.3346-0.68223-0.56641-1.6387c0 0-4.9007 3.4522-10.316-2.0254 0.18669 0.0619 1.9728 0.68205 5.0527 0.17773 4.5911-0.68216 5.2196-2.1241 5.5293-2.3887 8e-3 -0.0531 0.0176-0.0886 0.0371-0.13281 3.9717 2.1588 8.359 3.1663 14.605 3.291 7.0074 0.13183 13.716-2.0621 17.662-5.5039 3.9381-3.4338 8.5994-10.724 6.8555-18.422-1.4678-6.45-9.6682-12.741-11.562-14.121-4.0523-3.5833-14.53-11.769-15.521-13.539-1.0697-1.9288-5.9169-8.5029-12.553-9.8301 0 0-0.0696-8e-3 -0.17578-0.01zm9.209 23.715c-9e-3 8e-3 -6.1434 8.0268-11.592 20.023 0.14156 0.59279 0.32663 1.1578 0.5664 1.6719 1.6802 3.5842 3.1687 4.5665 6.1406 4.3887 0 0 6.946-11.847 11.848-18.182-1.0095-0.84142-2.22-1.912-3.6719-3.248-1.6191-1.4864-2.6451-3.0794-3.291-4.6543zm11.924 14.705c-1.9014 2.4862-4.0976 5.8578-5.8672 8.752-0.78568 1.2829-1.4942 2.476-2.0781 3.459 0.62908 0.0619 1.273 0.0879 1.9277 0.0879 2.0615 0.01 4.1944-0.31688 5.8047-0.98046 2.2217-0.82373 4.7274-3.9556 4.5938-6.0977 0-0.52113-0.10785-0.99189-0.33789-1.4785-0.87593-1.8315-2.7424-3.0963-4.043-3.7422z" fill="#b1babf"/>
   <path d="m277.6 186.78c0.3893-1.1679 1.7076-1.8147 3.0091-1.4864 0.0796 0.0177 0.15837 0.0345 0.23004 0.0619 0.0858 0.0283 0.16722 0.0628 0.25039 0.0964 1.2201 0.53706 1.8731 1.8315 1.4829 3.0003-0.48574 1.4413-0.39815 2.6543-0.30967 3.9018 0.0619 2.4154 1.1679 3.0887 0.67243 4.584l-0.49636 1.4599c-0.28136 0.84938-1.0608 1.3794-1.9545 1.513-0.41673 0.0531-0.85912 0.0531-1.3015-0.0885-1.3696-0.46008-2.1403-1.8589-1.7156-3.1056 0.0708-0.21235-0.054-0.44239-0.27517-0.5229-0.22119-0.0699-0.45035 0.0442-0.52113 0.24862-0.41496 1.2564-1.8757 1.9023-3.256 1.4422-0.44238-0.15041-0.79629-0.41584-1.0971-0.72551-0.62023-0.64589-0.92105-1.5307-0.63704-2.3721l0.49547-1.459c0.49459-1.4962 1.7872-1.3634 3.3002-3.2569 0.81399-0.93786 1.6368-1.8403 2.1234-3.2914z"/>
  </g>
  <path d="m287.84 273.91c-7.0481 4.4424-22.778 8.5522-37.928 3.471-14.869-4.9928-24.748-17.703-27.912-25.441-0.37072-0.80337-0.46716-2.972 1.705-3.9771 0 0-1.3723 0.19554-2.6083 1.2095 0 0-0.10883 0.16014-0.22031 0.49193-1.6643 4.9645 8.4115 26.097 27.436 32.484 19.035 6.389 39.622-3.8213 41.48-9.3556 0.12741-0.40257 0.15307-0.7264 0.15307-0.7264-0.43177-1.3546-1.2582-2.1987-1.2582-2.1987 1.0582 1.9969-0.0274 3.4612-0.84761 4.0425" fill="#c2242b"/>
 </g>
</svg>
